<svg xmlns="http://www.w3.org/2000/svg" width="95" height="110" viewBox="0 0 95 110">
  <g id="AddDomains" transform="translate(-1572.967 -1713)">
    <path id="Path_3641" data-name="Path 3641" d="M418.521,477.873l-47.5-27.5V395.369l47.5-27.5,47.5,27.5v55.008Zm-42.107-30.62,42.107,24.377,42.113-24.377v-48.76l-42.113-24.382-42.107,24.382Z" transform="translate(1201.943 1345.127)" fill="#047ebb"/>
    <path id="times" d="M11.81,105.094l6.124-6.124a.908.908,0,0,0,0-1.284l-1.423-1.423a.908.908,0,0,0-1.284,0L9.1,102.388,2.979,96.264a.908.908,0,0,0-1.284,0L.273,97.686a.908.908,0,0,0,0,1.284L6.4,105.094.273,111.219a.908.908,0,0,0,0,1.284L1.7,113.926a.908.908,0,0,0,1.284,0L9.1,107.8l6.124,6.124a.908.908,0,0,0,1.284,0l1.423-1.423a.908.908,0,0,0,0-1.284Z" transform="translate(1687.875 1687.423) rotate(45)" fill="#047ebb"/>
  </g>
</svg>
