<svg xmlns="http://www.w3.org/2000/svg" width="95" height="110" viewBox="0 0 95 110">
  <g id="AdvancedAnalytics" transform="translate(-252.967 -1093)">
    <path id="Path_3641" data-name="Path 3641" d="M418.521,477.873l-47.5-27.5V395.369l47.5-27.5,47.5,27.5v55.008Zm-42.107-30.62,42.107,24.377,42.113-24.377v-48.76l-42.113-24.382-42.107,24.382Z" transform="translate(-118.057 725.127)" fill="#047ebb"/>
    <path id="Oval_77" data-name="Oval 77" d="M177.714,905.9A15.215,15.215,0,1,0,162.5,890.687,15.215,15.215,0,0,0,177.714,905.9Z" transform="translate(122.284 257.252)" fill="none" stroke="#1791cc" stroke-linecap="round" stroke-linejoin="round" stroke-width="2"/>
    <path id="Shape_693" data-name="Shape 693" d="M207.038,899.375a1.085,1.085,0,0,0,.952-1.087v-4.595a1.088,1.088,0,0,0-.952-1.087L202.145,892a19.384,19.384,0,0,0-2.793-6.721l3.032-3.9a1.088,1.088,0,0,0-.089-1.434l-3.26-3.26a1.091,1.091,0,0,0-1.435-.089l-3.9,3.043a19.515,19.515,0,0,0-6.721-2.8l-.6-4.886a1.089,1.089,0,0,0-1.087-.952h-4.6a1.089,1.089,0,0,0-1.087.952l-.611,4.891a19.458,19.458,0,0,0-6.712,2.8l-3.9-3.032a1.088,1.088,0,0,0-1.435.089l-3.26,3.26a1.086,1.086,0,0,0-.089,1.435l3.043,3.913a19.383,19.383,0,0,0-2.793,6.721l-4.893.611a1.088,1.088,0,0,0-.952,1.087v4.6a1.085,1.085,0,0,0,.952,1.087l4.893.611a19.346,19.346,0,0,0,2.793,6.721l-3.037,3.867a1.085,1.085,0,0,0,.089,1.435l3.26,3.26a1.085,1.085,0,0,0,1.435.089l3.913-3.032a19.428,19.428,0,0,0,6.721,2.8l.611,4.891a1.085,1.085,0,0,0,1.087.952h4.6a1.085,1.085,0,0,0,1.087-.952l.611-4.891a19.428,19.428,0,0,0,6.721-2.8l3.9,3.032a1.085,1.085,0,0,0,1.435-.089l3.26-3.26a1.088,1.088,0,0,0,.089-1.435l-3.032-3.9a19.347,19.347,0,0,0,2.793-6.721Z" transform="translate(117.005 252.002)" fill="none" stroke="#1791cc" stroke-linecap="round" stroke-linejoin="round" stroke-width="2"/>
    <path id="Shape_694" data-name="Shape 694" d="M174.846,892.04V880.085A1.087,1.087,0,0,0,173.759,879h-2.174a1.087,1.087,0,0,0-1.087,1.087V892.04" transform="translate(131.673 261.391)" fill="none" stroke="#1791cc" stroke-linecap="round" stroke-linejoin="round" stroke-width="2"/>
    <path id="Shape_695" data-name="Shape 695" d="M170.846,888.519v-5.434A1.087,1.087,0,0,0,169.759,882h-2.174a1.087,1.087,0,0,0-1.087,1.087v5.434" transform="translate(126.979 264.912)" fill="none" stroke="#1791cc" stroke-linecap="round" stroke-linejoin="round" stroke-width="2"/>
    <path id="Shape_696" data-name="Shape 696" d="M165.5,885h17.389" transform="translate(125.805 268.433)" fill="none" stroke="#1791cc" stroke-linecap="round" stroke-linejoin="round" stroke-width="2"/>
  </g>
</svg>
