<svg xmlns="http://www.w3.org/2000/svg" xmlns:xlink="http://www.w3.org/1999/xlink" width="318" height="364.435" viewBox="0 0 318 364.435">
  <defs>
    <filter id="Path_4861" x="0" y="0" width="318" height="364.435" filterUnits="userSpaceOnUse">
      <feOffset dy="3" input="SourceAlpha"/>
      <feGaussianBlur stdDeviation="3" result="blur"/>
      <feFlood flood-opacity="0.161"/>
      <feComposite operator="in" in2="blur"/>
      <feComposite in="SourceGraphic"/>
    </filter>
  </defs>
  <g id="bucket2" transform="translate(-594.001 -515.863)">
    <g transform="matrix(1, 0, 0, 1, 594, 515.86)" filter="url(#Path_4861)">
      <path id="Path_4861-2" data-name="Path 4861" d="M255.835,419.12,390.1,168.34,240.108,254.949V428.166L390.1,514.775l150.011-86.609V254.949L390.1,168.34Z" transform="translate(-231.11 -162.34)" fill="#fff"/>
    </g>
    <g id="LTAG-Calendar">
      <path id="Path_3641" data-name="Path 3641" d="M418.521,477.873l-47.5-27.5V395.369l47.5-27.5,47.5,27.5v55.008Zm-42.107-30.62,42.107,24.377,42.113-24.377v-48.76l-42.113-24.382-42.107,24.382Z" transform="translate(334.477 197.127)" fill="#047ebb"/>
      <path id="Shape_1486" data-name="Shape 1486" d="M573.628,422.78l7.407,30.411a2.174,2.174,0,0,1-2.113,2.683H565.8" transform="translate(196.904 181.521)" fill="none" stroke="#1791cc" stroke-linecap="round" stroke-linejoin="round" stroke-width="3"/>
      <path id="Shape_1485" data-name="Shape 1485" d="M584.544,456.782a2.172,2.172,0,0,0,2.137-1.774l5.707-30.435A2.172,2.172,0,0,0,590.25,422H557.718a2.174,2.174,0,0,0-2.137,1.772l-5.706,30.435a2.172,2.172,0,0,0,2.137,2.576Z" transform="translate(178.163 180.606)" fill="none" stroke="#1791cc" stroke-linecap="round" stroke-linejoin="round" stroke-width="3"/>
      <path id="Shape_1482" data-name="Shape 1482" d="M560.4,422l-6.522,34.782" transform="translate(182.912 180.606)" fill="none" stroke="#1791cc" stroke-linecap="round" stroke-linejoin="round" stroke-width="3"/>
      <path id="Shape_1483" data-name="Shape 1483" d="M564.654,422l-6.522,34.782" transform="translate(187.9 180.606)" fill="none" stroke="#1791cc" stroke-linecap="round" stroke-linejoin="round" stroke-width="3"/>
      <path id="Shape_1484" data-name="Shape 1484" d="M568.9,422l-6.522,34.782" transform="translate(192.89 180.606)" fill="none" stroke="#1791cc" stroke-linecap="round" stroke-linejoin="round" stroke-width="3"/>
      <path id="Shape_1487" data-name="Shape 1487" d="M551.882,426h36.956" transform="translate(180.564 185.301)" fill="none" stroke="#1791cc" stroke-linecap="round" stroke-linejoin="round" stroke-width="3"/>
      <path id="Shape_1488" data-name="Shape 1488" d="M551.132,430h36.956" transform="translate(179.684 189.997)" fill="none" stroke="#1791cc" stroke-linecap="round" stroke-linejoin="round" stroke-width="3"/>
      <path id="Shape_1489" data-name="Shape 1489" d="M550.384,434h36.954" transform="translate(178.806 194.693)" fill="none" stroke="#1791cc" stroke-linecap="round" stroke-linejoin="round" stroke-width="3"/>
    </g>
  </g>
</svg>
