<svg xmlns="http://www.w3.org/2000/svg" xmlns:xlink="http://www.w3.org/1999/xlink" width="318" height="364.435" viewBox="0 0 318 364.435">
  <defs>
    <filter id="Path_4862" x="0" y="0" width="318" height="364.435" filterUnits="userSpaceOnUse">
      <feOffset dy="3" input="SourceAlpha"/>
      <feGaussianBlur stdDeviation="3" result="blur"/>
      <feFlood flood-opacity="0.161"/>
      <feComposite operator="in" in2="blur"/>
      <feComposite in="SourceGraphic"/>
    </filter>
  </defs>
  <g id="bucket3" transform="translate(-1008.001 -515.863)">
    <g transform="matrix(1, 0, 0, 1, 1008, 515.86)" filter="url(#Path_4862)">
      <path id="Path_4862-2" data-name="Path 4862" d="M255.835,419.12,390.1,168.34,240.108,254.949V428.166L390.1,514.775l150.011-86.609V254.949L390.1,168.34Z" transform="translate(-231.11 -162.34)" fill="#fff"/>
    </g>
    <g id="ReUsability">
      <path id="Path_3641" data-name="Path 3641" d="M418.521,477.873l-47.5-27.5V395.369l47.5-27.5,47.5,27.5v55.008Zm-42.107-30.62,42.107,24.377,42.113-24.377v-48.76l-42.113-24.382-42.107,24.382Z" transform="translate(748.477 197.127)" fill="#047ebb"/>
      <path id="Shape_1104" data-name="Shape 1104" d="M177.856,628.023h-8.333v8.333" transform="translate(995.811 6.975)" fill="none" stroke="#0091de" stroke-linecap="round" stroke-linejoin="round" stroke-width="3"/>
      <path id="Shape_1105" data-name="Shape 1105" d="M194.066,629.652a12.382,12.382,0,0,1-23.866-1.629" transform="translate(996.638 6.975)" fill="none" stroke="#0091de" stroke-linecap="round" stroke-linejoin="round" stroke-width="3"/>
      <path id="Shape_1106" data-name="Shape 1106" d="M177.773,629.606h8.333v-8.333" transform="translate(1005.894 -1.274)" fill="none" stroke="#0091de" stroke-linecap="round" stroke-linejoin="round" stroke-width="3"/>
      <path id="Shape_1107" data-name="Shape 1107" d="M170.106,628.9a12.382,12.382,0,0,1,23.866,1.629" transform="translate(996.523 -2.191)" fill="none" stroke="#0091de" stroke-linecap="round" stroke-linejoin="round" stroke-width="3"/>
      <path id="Shape_1108" data-name="Shape 1108" d="M172.022,634.522a10,10,0,1,1,9.444-13.284" transform="translate(986.644 -9.524)" fill="none" stroke="#0091de" stroke-linecap="round" stroke-linejoin="round" stroke-width="3"/>
      <path id="Shape_1109" data-name="Shape 1109" d="M169.856,620.856h-3.333v-3.333" transform="translate(992.145 -5.857)" fill="none" stroke="#0091de" stroke-linecap="round" stroke-linejoin="round" stroke-width="3"/>
      <path id="Shape_1110" data-name="Shape 1110" d="M174.022,653.354H162.356a3.333,3.333,0,0,1-3.333-3.333V613.356a3.331,3.331,0,0,1,3.333-3.333h23.619a3.327,3.327,0,0,1,2.355.978l6.382,6.38a3.336,3.336,0,0,1,.975,2.358v5.284" transform="translate(982.979 -15.023)" fill="none" stroke="#0091de" stroke-linecap="round" stroke-linejoin="round" stroke-width="3"/>
    </g>
  </g>
</svg>
