<svg xmlns="http://www.w3.org/2000/svg" width="95" height="110" viewBox="0 0 95 110">
  <g id="CareManagement" transform="translate(-582.967 -1093)">
    <path id="Path_3641" data-name="Path 3641" d="M418.521,477.873l-47.5-27.5V395.369l47.5-27.5,47.5,27.5v55.008Zm-42.107-30.62,42.107,24.377,42.113-24.377v-48.76l-42.113-24.382-42.107,24.382Z" transform="translate(211.943 725.127)" fill="#047ebb"/>
    <path id="Rectangle-path" d="M234,473.118a1.09,1.09,0,0,1,1.09-1.09h6.538a1.09,1.09,0,0,1,1.09,1.09v15.255a1.09,1.09,0,0,1-1.09,1.09H235.09a1.09,1.09,0,0,1-1.09-1.09Z" transform="translate(370.938 681.481)" fill="none" stroke="#1791cc" stroke-linecap="round" stroke-linejoin="round" stroke-width="2"/>
    <path id="Shape_44" data-name="Shape 44" d="M238,482.806c22.943,7.651,15.909,7.869,40.8-4.716a1.114,1.114,0,0,0,.183-1.861,5.418,5.418,0,0,0-5.267-1.05l-11.332,3.761" transform="translate(375.655 684.869)" fill="none" stroke="#1791cc" stroke-linecap="round" stroke-linejoin="round" stroke-width="2"/>
    <path id="Shape_45" data-name="Shape 45" d="M248.9,481.745h11.986a2.179,2.179,0,0,0,0-4.359h-6.538a14.36,14.36,0,0,0-9.807-4.358H238" transform="translate(375.655 682.661)" fill="none" stroke="#1791cc" stroke-linecap="round" stroke-linejoin="round" stroke-width="2"/>
    <path id="Oval_17" data-name="Oval 17" d="M244.538,471.1A6.538,6.538,0,1,0,238,464.566,6.537,6.537,0,0,0,244.538,471.1Z" transform="translate(375.655 664.972)" fill="none" stroke="#1791cc" stroke-linecap="round" stroke-linejoin="round" stroke-width="2"/>
    <path id="Shape_46" data-name="Shape 46" d="M238.415,459.5a10.915,10.915,0,0,0,12.112,2.447" transform="translate(376.145 666.714)" fill="none" stroke="#1791cc" stroke-linecap="round" stroke-linejoin="round" stroke-width="2"/>
    <path id="Shape_47" data-name="Shape 47" d="M264.232,471.416a8.574,8.574,0,0,1-1.249-4.755v-1.942a6.688,6.688,0,1,0-13.376,0v1.944a8.591,8.591,0,0,1-1.249,4.755" transform="translate(387.87 664.975)" fill="none" stroke="#1791cc" stroke-linecap="round" stroke-linejoin="round" stroke-width="2"/>
    <path id="Shape_48" data-name="Shape 48" d="M248.931,463.264a8.866,8.866,0,0,0,6.688-3.064,8.857,8.857,0,0,0,6.688,3.066" transform="translate(388.546 667.533)" fill="none" stroke="#1791cc" stroke-linecap="round" stroke-linejoin="round" stroke-width="2"/>
    <path id="Shape_49" data-name="Shape 49" d="M249.306,461.588a5.9,5.9,0,0,0,11.744,0" transform="translate(388.988 669.17)" fill="none" stroke="#1791cc" stroke-linecap="round" stroke-linejoin="round" stroke-width="2"/>
    <path id="Shape_50" data-name="Shape 50" d="M249.076,465.248A10.895,10.895,0,0,0,236,475.926" transform="translate(373.297 673.227)" fill="none" stroke="#1791cc" stroke-linecap="round" stroke-linejoin="round" stroke-width="2"/>
    <path id="Shape_51" data-name="Shape 51" d="M251,465.248a10.895,10.895,0,0,1,13.076,10.678" transform="translate(390.985 673.227)" fill="none" stroke="#1791cc" stroke-linecap="round" stroke-linejoin="round" stroke-width="2"/>
    <path id="Oval_18" data-name="Oval 18" d="M249.153,473.835a4.9,4.9,0,1,0-4.9-4.9A4.9,4.9,0,0,0,249.153,473.835Z" transform="translate(383.025 672.047)" fill="none" stroke="#1791cc" stroke-linecap="round" stroke-linejoin="round" stroke-width="2"/>
    <path id="Shape_52" data-name="Shape 52" d="M256.126,474.981a6.656,6.656,0,0,0-12.245-2.24" transform="translate(382.591 678.528)" fill="none" stroke="#1791cc" stroke-linecap="round" stroke-linejoin="round" stroke-width="2"/>
  </g>
</svg>
