<svg xmlns="http://www.w3.org/2000/svg" width="95" height="110" viewBox="0 0 95 110">
  <g id="Claims" transform="translate(-912.967 -1093)">
    <path id="Path_3641" data-name="Path 3641" d="M418.521,477.873l-47.5-27.5V395.369l47.5-27.5,47.5,27.5v55.008Zm-42.107-30.62,42.107,24.377,42.113-24.377v-48.76l-42.113-24.382-42.107,24.382Z" transform="translate(541.943 725.127)" fill="#047ebb"/>
    <path id="Shape_173" data-name="Shape 173" d="M264.8,576.435h-4.348v-4.348A1.087,1.087,0,0,0,259.37,571h-4.348a1.087,1.087,0,0,0-1.087,1.087v4.348h-4.348a1.087,1.087,0,0,0-1.087,1.087v4.348a1.087,1.087,0,0,0,1.087,1.087h4.348V587.3a1.087,1.087,0,0,0,1.087,1.087h4.348a1.087,1.087,0,0,0,1.087-1.087v-4.348H264.8a1.087,1.087,0,0,0,1.087-1.087v-4.348A1.087,1.087,0,0,0,264.8,576.435Z" transform="translate(702.805 565.043)" fill="none" stroke="#1791cc" stroke-linecap="round" stroke-linejoin="round" stroke-width="2"/>
    <path id="Shape_174" data-name="Shape 174" d="M268,569.348a4.348,4.348,0,0,0-8.7,0h-14.13A2.175,2.175,0,0,0,243,571.522v41.3A2.175,2.175,0,0,0,245.174,615H282.13a2.175,2.175,0,0,0,2.174-2.174v-41.3a2.175,2.175,0,0,0-2.174-2.174Z" transform="translate(696.348 558)" fill="none" stroke="#1791cc" stroke-linecap="round" stroke-linejoin="round" stroke-width="2"/>
    <path id="Rectangle-path_11" data-name="Rectangle-path 11" d="M245,570.087A1.087,1.087,0,0,1,246.087,569h30.435a1.087,1.087,0,0,1,1.087,1.087V604.87a1.087,1.087,0,0,1-1.087,1.087H246.087A1.087,1.087,0,0,1,245,604.87Z" transform="translate(698.695 562.696)" fill="none" stroke="#1791cc" stroke-linecap="round" stroke-linejoin="round" stroke-width="2"/>
    <path id="Shape_175" data-name="Shape 175" d="M248,581h19.565" transform="translate(702.217 576.783)" fill="none" stroke="#1791cc" stroke-linecap="round" stroke-linejoin="round" stroke-width="2"/>
    <path id="Shape_176" data-name="Shape 176" d="M248,583h19.565" transform="translate(702.217 579.13)" fill="none" stroke="#1791cc" stroke-linecap="round" stroke-linejoin="round" stroke-width="2"/>
  </g>
</svg>
