<svg xmlns="http://www.w3.org/2000/svg" width="95" height="110" viewBox="0 0 95 110">
  <g id="CoreSharedService" transform="translate(-1242.967 -1093)">
    <path id="Path_3641" data-name="Path 3641" d="M418.521,477.873l-47.5-27.5V395.369l47.5-27.5,47.5,27.5v55.008Zm-42.107-30.62,42.107,24.377,42.113-24.377v-48.76l-42.113-24.382-42.107,24.382Z" transform="translate(871.943 725.127)" fill="#047ebb"/>
    <path id="Shape_192" data-name="Shape 192" d="M216.112,802.153l-8.541,1.709" transform="translate(1091.279 364.656)" fill="none" stroke="#1791cc" stroke-linecap="round" stroke-linejoin="round" stroke-width="2"/>
    <path id="Shape_193" data-name="Shape 193" d="M212.113,801.438l-4.03,1.654a2.609,2.609,0,0,1-2.135-4.757l4.028-1.956a3.6,3.6,0,0,1,2.843-.163l7.354,2.813" transform="translate(1087.669 357.431)" fill="none" stroke="#1791cc" stroke-linecap="round" stroke-linejoin="round" stroke-width="2"/>
    <path id="Shape_194" data-name="Shape 194" d="M200.5,807.731h3.043l5.065,3.85a1.489,1.489,0,0,0,2.052.161l7.609-6.1a1.486,1.486,0,0,0,.228-2.063l-4.178-4.6" transform="translate(1082.979 360.922)" fill="none" stroke="#1791cc" stroke-linecap="round" stroke-linejoin="round" stroke-width="2"/>
    <path id="Shape_195" data-name="Shape 195" d="M210.3,797.753l-.543-.448a3.2,3.2,0,0,0-1.891-.62,3.111,3.111,0,0,0-1.185.228l-6.185,2.633" transform="translate(1082.979 358.237)" fill="none" stroke="#1791cc" stroke-linecap="round" stroke-linejoin="round" stroke-width="2"/>
    <path id="Shape_196" data-name="Shape 196" d="M197.5,812.218h4.348a2.175,2.175,0,0,0,2.174-2.174v-10.87A2.173,2.173,0,0,0,201.848,797H197.5Z" transform="translate(1079.457 358.608)" fill="none" stroke="#1791cc" stroke-linecap="round" stroke-linejoin="round" stroke-width="2"/>
    <path id="Shape_197" data-name="Shape 197" d="M218.022,812.218h-4.348a2.175,2.175,0,0,1-2.174-2.174v-10.87A2.173,2.173,0,0,1,213.674,797h4.348Z" transform="translate(1095.892 358.608)" fill="none" stroke="#1791cc" stroke-linecap="round" stroke-linejoin="round" stroke-width="2"/>
    <path id="Shape_198" data-name="Shape 198" d="M226.2,782H199.022a6.521,6.521,0,0,0-6.522,6.522v42.391A1.087,1.087,0,0,0,193.587,832h5.435" transform="translate(1073.587 340.999)" fill="none" stroke="#1791cc" stroke-linecap="round" stroke-linejoin="round" stroke-width="2"/>
    <path id="Shape_199" data-name="Shape 199" d="M195.5,786h15.217" transform="translate(1077.108 345.695)" fill="none" stroke="#1791cc" stroke-linecap="round" stroke-linejoin="round" stroke-width="2"/>
    <path id="Shape_200" data-name="Shape 200" d="M195.5,789h15.217" transform="translate(1077.108 349.216)" fill="none" stroke="#1791cc" stroke-linecap="round" stroke-linejoin="round" stroke-width="2"/>
    <path id="Shape_201" data-name="Shape 201" d="M195.5,792h7.609" transform="translate(1077.108 352.738)" fill="none" stroke="#1791cc" stroke-linecap="round" stroke-linejoin="round" stroke-width="2"/>
    <path id="Shape_202" data-name="Shape 202" d="M205.5,809.175V787.436A5.434,5.434,0,0,1,210.935,782c3,0,5.435,2.433,5.435,6.522H205.5" transform="translate(1088.848 340.999)" fill="none" stroke="#1791cc" stroke-linecap="round" stroke-linejoin="round" stroke-width="2"/>
  </g>
</svg>
