<svg xmlns="http://www.w3.org/2000/svg" width="95" height="110" viewBox="0 0 95 110">
  <g id="Data-Flow_" data-name="Data-Flow " transform="translate(-1533.5 -565)">
    <path id="Path_3641" data-name="Path 3641" d="M418.521,477.873l-47.5-27.5V395.369l47.5-27.5,47.5,27.5v55.008Zm-42.107-30.62,42.107,24.377,42.113-24.377v-48.76l-42.113-24.382-42.107,24.382Z" transform="translate(1162.477 197.127)" fill="#047ebb"/>
    <path id="Oval_52" data-name="Oval 52" d="M213.191,912.458c6.711,0,12.153-2.239,12.153-5s-5.442-5-12.153-5-12.153,2.238-12.153,5S206.478,912.458,213.191,912.458Z" transform="translate(1367.809 -307.458)" fill="none" stroke="#0091de" stroke-linecap="round" stroke-linejoin="round" stroke-width="3"/>
    <path id="Shape_751" data-name="Shape 751" d="M201.038,904.618v6.667c0,2.759,5.442,5,12.153,5s12.153-2.238,12.153-5v-6.667" transform="translate(1367.809 -304.618)" fill="none" stroke="#0091de" stroke-linecap="round" stroke-linejoin="round" stroke-width="3"/>
    <path id="Shape_752" data-name="Shape 752" d="M201.038,907.5v6.667c0,2.759,5.442,5,12.153,5s12.153-2.239,12.153-5V907.5" transform="translate(1367.809 -300.831)" fill="none" stroke="#0091de" stroke-linecap="round" stroke-linejoin="round" stroke-width="3"/>
    <path id="Rectangle-path_66" data-name="Rectangle-path 66" d="M195.038,918.89a3.471,3.471,0,0,1,3.472-3.472H212.4a3.472,3.472,0,0,1,3.472,3.472v6.389a3.473,3.473,0,0,1-3.472,3.472H198.51a3.472,3.472,0,0,1-3.472-3.472Z" transform="translate(1359.92 -290.418)" fill="none" stroke="#0091de" stroke-linecap="round" stroke-linejoin="round" stroke-width="3"/>
    <path id="Shape_753" data-name="Shape 753" d="M199.538,921.178v6.667" transform="translate(1365.837 -282.845)" fill="none" stroke="#0091de" stroke-linecap="round" stroke-linejoin="round" stroke-width="3"/>
    <path id="Shape_754" data-name="Shape 754" d="M197.288,924.058H207.7" transform="translate(1362.878 -279.058)" fill="none" stroke="#0091de" stroke-linecap="round" stroke-linejoin="round" stroke-width="3"/>
    <path id="Rectangle-path_67" data-name="Rectangle-path 67" d="M208.538,918.89a3.471,3.471,0,0,1,3.472-3.472H225.9a3.472,3.472,0,0,1,3.472,3.472v6.389a3.474,3.474,0,0,1-3.472,3.472H212.01a3.472,3.472,0,0,1-3.472-3.472Z" transform="translate(1377.67 -290.418)" fill="none" stroke="#0091de" stroke-linecap="round" stroke-linejoin="round" stroke-width="3"/>
    <path id="Shape_755" data-name="Shape 755" d="M213.038,921.178v6.667" transform="translate(1383.587 -282.845)" fill="none" stroke="#0091de" stroke-linecap="round" stroke-linejoin="round" stroke-width="3"/>
    <path id="Shape_756" data-name="Shape 756" d="M210.788,924.058H221.2" transform="translate(1380.628 -279.058)" fill="none" stroke="#0091de" stroke-linecap="round" stroke-linejoin="round" stroke-width="3"/>
    <path id="Shape_757" data-name="Shape 757" d="M196.539,916.325v-3.333a3.4,3.4,0,0,1,3.472-3.333" transform="translate(1361.894 -297.991)" fill="none" stroke="#0091de" stroke-linecap="round" stroke-linejoin="round" stroke-width="3"/>
    <path id="Shape_758" data-name="Shape 758" d="M218.011,916.325v-3.333a3.406,3.406,0,0,0-3.472-3.333" transform="translate(1385.561 -297.991)" fill="none" stroke="#0091de" stroke-linecap="round" stroke-linejoin="round" stroke-width="3"/>
  </g>
</svg>
