<svg xmlns="http://www.w3.org/2000/svg" width="375" height="60" viewBox="0 0 375 80">
  <g id="EA-logo" transform="translate(-140 -34)">
    <path id="Path_644" data-name="Path 644" d="M274.744,172.54l31.015,17.9v35.811l-31.015,17.9-31-17.9V190.44l31-17.9m0-4.2-34.636,20v40l34.636,20,34.641-20v-40l-34.641-20Z" transform="translate(-100.108 -134.34)" fill="#1791cc"/>
    <path id="Shape_213" data-name="Shape 213" d="M713.639,190.556l-3.114-3.892A6.956,6.956,0,0,1,709,182.316v-8a2.32,2.32,0,0,1,2.32-2.32h0a2.32,2.32,0,0,1,2.32,2.32v5.8" transform="translate(-552.145 -98.778)" fill="none" stroke="#1791cc" stroke-linecap="round" stroke-linejoin="round" stroke-width="2"/>
    <path id="Shape_214" data-name="Shape 214" d="M718.959,188.385v-4.849a6.95,6.95,0,0,0-1.171-3.866l-1.768-2.644a2.164,2.164,0,0,0-3.057-.688h0a2.165,2.165,0,0,0-.734,2.77l2.091,3.479" transform="translate(-550.506 -96.607)" fill="none" stroke="#1791cc" stroke-linecap="round" stroke-linejoin="round" stroke-width="2"/>
    <path id="Shape_215" data-name="Shape 215" d="M729,190.556l3.114-3.892a6.965,6.965,0,0,0,1.525-4.348v-8A2.32,2.32,0,0,0,731.32,172h0a2.32,2.32,0,0,0-2.32,2.32v5.8" transform="translate(-541.218 -98.778)" fill="none" stroke="#1791cc" stroke-linecap="round" stroke-linejoin="round" stroke-width="2"/>
    <path id="Shape_216" data-name="Shape 216" d="M724.5,188.385v-4.849a6.949,6.949,0,0,1,1.171-3.866l1.768-2.644a2.164,2.164,0,0,1,3.057-.688h0a2.164,2.164,0,0,1,.736,2.77l-2.092,3.479" transform="translate(-543.676 -96.607)" fill="none" stroke="#1791cc" stroke-linecap="round" stroke-linejoin="round" stroke-width="2"/>
    <path id="Shape_217" data-name="Shape 217" d="M726.46,177.852a3.093,3.093,0,1,1,5.067-3.317.773.773,0,0,0,1.266.264l2.414-2.414a1.547,1.547,0,0,0,0-2.187l-2.474-2.474a3.093,3.093,0,1,0-3.793-3.79l-2.474-2.474a1.544,1.544,0,0,0-2.186,0l-2.247,2.23a.772.772,0,0,0,.119,1.192,3.093,3.093,0,1,1-3.892,4.774,3,3,0,0,1-.393-.481.772.772,0,0,0-1.194-.121l-2.241,2.236a1.545,1.545,0,0,0,0,2.187l8.748,8.748a1.548,1.548,0,0,0,2.187,0l2.415-2.415a.773.773,0,0,0-.265-1.266,3.053,3.053,0,0,1-1.058-.691Z" transform="translate(-549.424 -104.785)" fill="none" stroke="#1791cc" stroke-linecap="round" stroke-linejoin="round" stroke-width="2.5"/>
    <path id="Path_4864" data-name="Path 4864" d="M4.847,16.282V13.075h6.434V10.58H4.847V7.571h7.285V5H1.66V18.855H12.39V16.282ZM24.485,5v8.414L17.6,5H14.944V18.855h3.167V10.442l6.909,8.414h2.633V5ZM33.81,18.855h3.207V7.611h4.434V5H29.375V7.611H33.81Zm12.551-2.574V13.075h6.434V10.58H46.361V7.571h7.285V5H43.173V18.855H53.9V16.282Zm22.37,2.574L65.623,14.4a4.505,4.505,0,0,0,2.851-4.375C68.473,6.918,66.157,5,62.455,5h-6V18.855h3.207v-3.86h2.95l2.673,3.86Zm-3.5-8.829c0,1.5-.99,2.415-2.95,2.415H59.664V7.611h2.613C64.237,7.611,65.227,8.5,65.227,10.026ZM77.006,5h-6V18.855h3.207V15.034h2.791c3.7,0,6.018-1.92,6.018-5.009C83.024,6.918,80.708,5,77.006,5Zm-.178,7.424H74.214V7.611h2.613c1.96,0,2.95.891,2.95,2.415C79.777,11.53,78.787,12.421,76.828,12.421Zm20.747,6.434L94.466,14.4a4.505,4.505,0,0,0,2.851-4.375C97.317,6.918,95,5,91.3,5h-6V18.855h3.207v-3.86h2.95l2.673,3.86Zm-3.5-8.829c0,1.5-.99,2.415-2.95,2.415H88.508V7.611h2.613C93.081,7.611,94.07,8.5,94.07,10.026Zm5.781,8.829h3.207V5H99.851Zm11.046.238c3.959,0,5.88-1.98,5.88-4.3,0-5.088-8.057-3.326-8.057-5.88,0-.871.732-1.584,2.633-1.584a7.827,7.827,0,0,1,3.841,1.089l.99-2.435a9.3,9.3,0,0,0-4.811-1.227c-3.94,0-5.84,1.96-5.84,4.316,0,5.147,8.057,3.365,8.057,5.959,0,.851-.772,1.485-2.673,1.485a8.151,8.151,0,0,1-4.573-1.445l-1.089,2.415A9.877,9.877,0,0,0,110.9,19.093Zm11.264-2.811V13.075H128.6V10.58h-6.434V7.571h7.285V5H118.974V18.855H129.7V16.282Zm26.824,2.574h1.089L143.7,5h-1.01l-6.374,13.858h1.089l1.762-3.9H147.2ZM139.563,14.1l3.623-8,3.643,8Zm23.8,4.751-3.464-4.85a4.252,4.252,0,0,0,3.247-4.335c0-2.93-2.1-4.672-5.583-4.672h-4.969V18.855h1.01V14.322h3.959a9.782,9.782,0,0,0,1.346-.1l3.306,4.632Zm-9.76-5.424V5.908h3.959c2.969,0,4.553,1.366,4.553,3.761,0,2.376-1.584,3.761-4.553,3.761Zm19.1,5.523a6.621,6.621,0,0,0,4.929-1.94L177,16.361a5.818,5.818,0,0,1-4.256,1.663,6.018,6.018,0,0,1-6.216-6.1,6.018,6.018,0,0,1,6.216-6.1A5.8,5.8,0,0,1,177,7.472l.633-.653A6.607,6.607,0,0,0,172.7,4.9a6.921,6.921,0,0,0-7.186,7.028A6.921,6.921,0,0,0,172.7,18.954ZM191.291,5v6.374h-9.265V5h-1.01V18.855h1.01V12.263h9.265v6.592h1.01V5Zm5.84,13.858h1.01V5h-1.01Zm8.493,0h1.01V5.908h4.989V5H200.635v.911h4.989Zm9.5-.911V12.263h7.384v-.891h-7.384V5.908h8.255V5h-9.265V18.855h9.562v-.911Zm18.015,1.01a6.621,6.621,0,0,0,4.929-1.94l-.633-.653a5.818,5.818,0,0,1-4.256,1.663,6.018,6.018,0,0,1-6.216-6.1,6.018,6.018,0,0,1,6.216-6.1,5.8,5.8,0,0,1,4.256,1.643l.633-.653a6.607,6.607,0,0,0-4.929-1.92,6.921,6.921,0,0,0-7.186,7.028A6.921,6.921,0,0,0,233.141,18.954Zm10.789-.1h1.01V5.908h4.989V5H238.942v.911h4.989Zm13.64.1c3.445,0,5.563-2.019,5.563-5.979V5h-1.01v7.938c0,3.464-1.643,5.088-4.533,5.088s-4.553-1.623-4.553-5.088V5h-1.01v7.978C252.027,16.935,254.126,18.954,257.57,18.954Zm21.044-.1-3.464-4.85A4.252,4.252,0,0,0,278.4,9.67C278.4,6.74,276.3,5,272.814,5h-4.969V18.855h1.01V14.322h3.959a9.783,9.783,0,0,0,1.346-.1l3.306,4.632Zm-9.76-5.424V5.908h3.959c2.969,0,4.553,1.366,4.553,3.761,0,2.376-1.584,3.761-4.553,3.761Zm14.254,4.514V12.263h7.384v-.891h-7.384V5.908h8.255V5H282.1V18.855h9.562v-.911Z" transform="translate(223.34 62.24)" fill="#1791cc"/>
  </g>
</svg>
