<svg xmlns="http://www.w3.org/2000/svg" width="95" height="110" viewBox="0 0 95 110">
  <g id="Enabling" transform="translate(-1572.967 -1093)">
    <path id="Path_3641" data-name="Path 3641" d="M418.521,477.873l-47.5-27.5V395.369l47.5-27.5,47.5,27.5v55.008Zm-42.107-30.62,42.107,24.377,42.113-24.377v-48.76l-42.113-24.382-42.107,24.382Z" transform="translate(1201.943 725.127)" fill="#047ebb"/>
    <path id="Shape_296" data-name="Shape 296" d="M381,893.97V876.476" transform="translate(1217.358 270.284)" fill="none" stroke="#1791cc" stroke-linecap="round" stroke-linejoin="round" stroke-width="2"/>
    <path id="Shape_297" data-name="Shape 297" d="M380,884.156h11.389" transform="translate(1216.08 280.097)" fill="none" stroke="#1791cc" stroke-linecap="round" stroke-linejoin="round" stroke-width="2"/>
    <path id="Shape_298" data-name="Shape 298" d="M379,888h52.389" transform="translate(1214.803 285.004)" fill="none" stroke="#1791cc" stroke-linecap="round" stroke-linejoin="round" stroke-width="2"/>
    <path id="Shape_299" data-name="Shape 299" d="M379,886.076h52.389" transform="translate(1214.803 282.551)" fill="none" stroke="#1791cc" stroke-linecap="round" stroke-linejoin="round" stroke-width="2"/>
    <path id="Shape_300" data-name="Shape 300" d="M380,876.476h11.389" transform="translate(1216.08 270.284)" fill="none" stroke="#1791cc" stroke-linecap="round" stroke-linejoin="round" stroke-width="2"/>
    <path id="Shape_301" data-name="Shape 301" d="M388,884.156h11.389" transform="translate(1226.303 280.097)" fill="none" stroke="#1791cc" stroke-linecap="round" stroke-linejoin="round" stroke-width="2"/>
    <path id="Shape_302" data-name="Shape 302" d="M388,876.476h11.389" transform="translate(1226.303 270.284)" fill="none" stroke="#1791cc" stroke-linecap="round" stroke-linejoin="round" stroke-width="2"/>
    <path id="Shape_303" data-name="Shape 303" d="M384,893.97V876.476" transform="translate(1221.191 270.284)" fill="none" stroke="#1791cc" stroke-linecap="round" stroke-linejoin="round" stroke-width="2"/>
    <path id="Shape_304" data-name="Shape 304" d="M389,893.97V876.476" transform="translate(1227.581 270.284)" fill="none" stroke="#1791cc" stroke-linecap="round" stroke-linejoin="round" stroke-width="2"/>
    <path id="Shape_305" data-name="Shape 305" d="M392,893.97V876.476" transform="translate(1231.414 270.284)" fill="none" stroke="#1791cc" stroke-linecap="round" stroke-linejoin="round" stroke-width="2"/>
    <path id="Shape_306" data-name="Shape 306" d="M396,884.156h11.389" transform="translate(1236.525 280.097)" fill="none" stroke="#1791cc" stroke-linecap="round" stroke-linejoin="round" stroke-width="2"/>
    <path id="Shape_307" data-name="Shape 307" d="M396,876.476h11.389" transform="translate(1236.525 270.284)" fill="none" stroke="#1791cc" stroke-linecap="round" stroke-linejoin="round" stroke-width="2"/>
    <path id="Shape_308" data-name="Shape 308" d="M397,893.97V876.476" transform="translate(1237.803 270.284)" fill="none" stroke="#1791cc" stroke-linecap="round" stroke-linejoin="round" stroke-width="2"/>
    <path id="Shape_309" data-name="Shape 309" d="M400,893.97V876.476" transform="translate(1241.637 270.284)" fill="none" stroke="#1791cc" stroke-linecap="round" stroke-linejoin="round" stroke-width="2"/>
    <path id="Shape_310" data-name="Shape 310" d="M380.394,883.472a1.072,1.072,0,0,0-.378,1.219,1.139,1.139,0,0,0,1.077.74h45.784a1.14,1.14,0,0,0,1.08-.738,1.065,1.065,0,0,0-.376-1.219l-22.83-17.2a1.175,1.175,0,0,0-1.4,0Z" transform="translate(1216.021 256.955)" fill="none" stroke="#1791cc" stroke-linecap="round" stroke-linejoin="round" stroke-width="2"/>
  </g>
</svg>
