<svg xmlns="http://www.w3.org/2000/svg" width="95" height="110" viewBox="0 0 95 110">
  <g id="EnterpriseArchitecture" transform="translate(-582.967 -1403)">
    <path id="Path_3641" data-name="Path 3641" d="M418.521,477.873l-47.5-27.5V395.369l47.5-27.5,47.5,27.5v55.008Zm-42.107-30.62,42.107,24.377,42.113-24.377v-48.76l-42.113-24.382-42.107,24.382Z" transform="translate(211.943 1035.127)" fill="#047ebb"/>
    <path id="Shape_213" data-name="Shape 213" d="M715.524,198.095l-4.38-5.473A9.781,9.781,0,0,1,709,186.506V175.262A3.263,3.263,0,0,1,712.262,172h0a3.263,3.263,0,0,1,3.262,3.262v8.155" transform="translate(-104.008 1284.905)" fill="none" stroke="#1791cc" stroke-linecap="round" stroke-linejoin="round" stroke-width="2"/>
    <path id="Shape_214" data-name="Shape 214" d="M721.786,193.427v-6.819a9.772,9.772,0,0,0-1.646-5.436l-2.486-3.718a3.043,3.043,0,0,0-4.3-.968h0a3.045,3.045,0,0,0-1.033,3.895l2.94,4.893" transform="translate(-100.484 1289.573)" fill="none" stroke="#1791cc" stroke-linecap="round" stroke-linejoin="round" stroke-width="2"/>
    <path id="Shape_215" data-name="Shape 215" d="M729,198.095l4.379-5.473a9.794,9.794,0,0,0,2.144-6.115V175.262A3.263,3.263,0,0,0,732.262,172h0A3.263,3.263,0,0,0,729,175.262v8.155" transform="translate(-80.517 1284.905)" fill="none" stroke="#1791cc" stroke-linecap="round" stroke-linejoin="round" stroke-width="2"/>
    <path id="Shape_216" data-name="Shape 216" d="M724.5,193.427v-6.819a9.773,9.773,0,0,1,1.646-5.436l2.485-3.718a3.043,3.043,0,0,1,4.3-.968h0a3.043,3.043,0,0,1,1.035,3.895l-2.942,4.893" transform="translate(-85.803 1289.573)" fill="none" stroke="#1791cc" stroke-linecap="round" stroke-linejoin="round" stroke-width="2"/>
    <path id="Shape_217" data-name="Shape 217" d="M731.53,184.695a4.349,4.349,0,1,1,7.126-4.664,1.087,1.087,0,0,0,1.781.372l3.395-3.394a2.176,2.176,0,0,0,0-3.075l-3.479-3.479a4.349,4.349,0,1,0-5.334-5.33l-3.479-3.479a2.172,2.172,0,0,0-3.075,0l-3.16,3.136a1.085,1.085,0,0,0,.167,1.677A4.349,4.349,0,1,1,720,173.17a4.21,4.21,0,0,1-.552-.676,1.086,1.086,0,0,0-1.679-.17l-3.151,3.144a2.172,2.172,0,0,0,0,3.075l12.3,12.3a2.176,2.176,0,0,0,3.075,0l3.4-3.4a1.087,1.087,0,0,0-.372-1.781,4.294,4.294,0,0,1-1.487-.972Z" transform="translate(-98.16 1271.993)" fill="none" stroke="#1791cc" stroke-linecap="round" stroke-linejoin="round" stroke-width="2"/>
  </g>
</svg>
