<svg xmlns="http://www.w3.org/2000/svg" xmlns:xlink="http://www.w3.org/1999/xlink" width="1920" height="756" viewBox="0 0 1920 756">
  <defs>
    <clipPath id="clip-path">
      <rect id="Rectangle_22315" data-name="Rectangle 22315" width="1920" height="600" transform="translate(0 150)" fill="#1791cc"/>
    </clipPath>
    <clipPath id="clip-path-2">
      <rect id="Rectangle_1" data-name="Rectangle 1" width="1920" height="745" transform="translate(0 0)" fill="none"/>
    </clipPath>
  </defs>
  <g id="hero-bg" transform="translate(0 -150)">
    <rect id="Rectangle_6" data-name="Rectangle 6" width="1920" height="756" transform="translate(0 150)" fill="#fff"/>
    <rect id="Rectangle_22312" data-name="Rectangle 22312" width="1920" height="600" transform="translate(0 150)" fill="#1791cc"/>
    <g id="Mask_Group_40" data-name="Mask Group 40" clip-path="url(#clip-path)">
      <g id="Group_2189" data-name="Group 2189" transform="translate(216.055 -36.351)" opacity="0.1">
        <g id="Group_1" data-name="Group 1" transform="translate(-216.054 36.351)" clip-path="url(#clip-path-2)">
          <path id="Path_1" data-name="Path 1" d="M-142.073,265.311l-42.116,24.316-42.117-24.316V216.679l42.117-24.316,42.116,24.316Z" transform="translate(153.408 917.056)" fill="#171717"/>
          <path id="Path_2" data-name="Path 2" d="M-130.227,265.311l-42.116,24.316-42.117-24.316V216.679l42.117-24.316,42.116,24.316Z" transform="translate(225.796 917.056)" fill="#1a1a1a"/>
          <path id="Path_3" data-name="Path 3" d="M-118.382,265.311-160.5,289.627l-42.116-24.316V216.679l42.116-24.316,42.117,24.316Z" transform="translate(298.184 917.056)" fill="#121212"/>
          <path id="Path_4" data-name="Path 4" d="M-106.536,265.311l-42.117,24.316-42.116-24.316V216.679l42.116-24.316,42.117,24.316Z" transform="translate(370.572 917.056)" fill="#4a4a4a"/>
          <path id="Path_5" data-name="Path 5" d="M-94.692,265.311l-42.116,24.316-42.116-24.316V216.679l42.116-24.316,42.116,24.316Z" transform="translate(442.96 917.056)" fill="#383838"/>
          <path id="Path_6" data-name="Path 6" d="M-82.846,265.311l-42.116,24.316-42.117-24.316V216.679l42.117-24.316,42.116,24.316Z" transform="translate(515.347 917.056)" fill="#636363"/>
          <path id="Path_7" data-name="Path 7" d="M-71,265.311l-42.116,24.316-42.117-24.316V216.679l42.117-24.316L-71,216.679Z" transform="translate(587.735 917.056)" fill="#4a4a4a"/>
          <path id="Path_8" data-name="Path 8" d="M-59.155,265.311l-42.117,24.316-42.116-24.316V216.679l42.116-24.316,42.117,24.316Z" transform="translate(660.123 917.056)" fill="#2b2b2b"/>
          <path id="Path_9" data-name="Path 9" d="M-47.311,265.311l-42.116,24.316-42.116-24.316V216.679l42.116-24.316,42.116,24.316Z" transform="translate(732.511 917.056)" fill="#636363"/>
          <path id="Path_10" data-name="Path 10" d="M-35.465,265.311l-42.116,24.316L-119.7,265.311V216.679l42.117-24.316,42.116,24.316Z" transform="translate(804.898 917.056)" fill="#4a4a4a"/>
          <path id="Path_11" data-name="Path 11" d="M-23.62,265.311l-42.116,24.316-42.117-24.316V216.679l42.117-24.316,42.116,24.316Z" transform="translate(877.286 917.056)" fill="#383838"/>
          <path id="Path_12" data-name="Path 12" d="M-11.774,265.311l-42.117,24.316-42.116-24.316V216.679l42.116-24.316,42.117,24.316Z" transform="translate(949.674 917.056)" fill="#1a1a1a"/>
          <path id="Path_13" data-name="Path 13" d="M-136.15,275.547l-42.117,24.317-42.116-24.317V226.914l42.116-24.316,42.117,24.316Z" transform="translate(189.603 979.609)" fill="#2b2b2b"/>
          <path id="Path_14" data-name="Path 14" d="M-124.305,275.547l-42.116,24.317-42.116-24.317V226.914l42.116-24.316,42.116,24.316Z" transform="translate(261.991 979.609)" fill="#171717"/>
          <path id="Path_15" data-name="Path 15" d="M-112.459,275.547l-42.116,24.317-42.117-24.317V226.914l42.117-24.316,42.116,24.316Z" transform="translate(334.378 979.609)" fill="#2e2e2e"/>
          <path id="Path_16" data-name="Path 16" d="M-100.614,275.547l-42.116,24.317-42.117-24.317V226.914L-142.73,202.6l42.116,24.316Z" transform="translate(406.766 979.609)" fill="#6b6b6b"/>
          <path id="Path_17" data-name="Path 17" d="M-88.769,275.547l-42.117,24.317L-173,275.547V226.914l42.116-24.316,42.117,24.316Z" transform="translate(479.154 979.609)" fill="#2b2b2b"/>
          <path id="Path_18" data-name="Path 18" d="M-76.923,275.547l-42.117,24.317-42.116-24.317V226.914L-119.04,202.6l42.117,24.316Z" transform="translate(551.542 979.609)" fill="#171717"/>
          <path id="Path_19" data-name="Path 19" d="M-65.079,275.547-107.2,299.863l-42.116-24.317V226.914L-107.2,202.6l42.116,24.316Z" transform="translate(623.93 979.609)" fill="#2e2e2e"/>
          <path id="Path_20" data-name="Path 20" d="M-53.233,275.547l-42.116,24.317-42.117-24.317V226.914L-95.349,202.6l42.116,24.316Z" transform="translate(696.317 979.609)" fill="#4a4a4a"/>
          <path id="Path_21" data-name="Path 21" d="M-41.388,275.547-83.5,299.863l-42.116-24.317V226.914L-83.5,202.6l42.117,24.316Z" transform="translate(768.705 979.609)" fill="#383838"/>
          <path id="Path_22" data-name="Path 22" d="M-29.542,275.547l-42.117,24.317-42.116-24.317V226.914L-71.659,202.6l42.117,24.316Z" transform="translate(841.093 979.609)" fill="#4a4a4a"/>
          <path id="Path_23" data-name="Path 23" d="M-17.7,275.547l-42.116,24.317-42.116-24.317V226.914L-59.814,202.6-17.7,226.914Z" transform="translate(913.481 979.609)" fill="#121212"/>
          <path id="Path_24" data-name="Path 24" d="M-5.852,275.547l-42.116,24.317-42.117-24.317V226.914L-47.968,202.6l42.116,24.316Z" transform="translate(985.868 979.609)" fill="#6b6b6b"/>
          <path id="Path_25" data-name="Path 25" d="M-142.073,244.8l-42.116,24.316L-226.306,244.8V196.17l42.117-24.316,42.116,24.316Z" transform="translate(153.408 791.723)" fill="#2b2b2b"/>
          <path id="Path_26" data-name="Path 26" d="M-130.227,244.8l-42.116,24.316L-214.46,244.8V196.17l42.117-24.316,42.116,24.316Z" transform="translate(225.796 791.723)" fill="#121212"/>
          <path id="Path_27" data-name="Path 27" d="M-118.382,244.8-160.5,269.118-202.615,244.8V196.17l42.116-24.316,42.117,24.316Z" transform="translate(298.184 791.723)" fill="#2b2b2b"/>
          <path id="Path_28" data-name="Path 28" d="M-106.536,244.8l-42.117,24.316L-190.77,244.8V196.17l42.116-24.316,42.117,24.316Z" transform="translate(370.572 791.723)" fill="#4a4a4a"/>
          <path id="Path_29" data-name="Path 29" d="M-94.692,244.8l-42.116,24.316L-178.924,244.8V196.17l42.116-24.316,42.116,24.316Z" transform="translate(442.96 791.723)" fill="#4a4a4a"/>
          <path id="Path_30" data-name="Path 30" d="M-82.846,244.8l-42.116,24.316L-167.079,244.8V196.17l42.117-24.316,42.116,24.316Z" transform="translate(515.347 791.723)" fill="#171717"/>
          <path id="Path_31" data-name="Path 31" d="M-71,244.8l-42.116,24.316L-155.234,244.8V196.17l42.117-24.316L-71,196.17Z" transform="translate(587.735 791.723)" fill="#636363"/>
          <path id="Path_32" data-name="Path 32" d="M-59.155,244.8l-42.117,24.316L-143.389,244.8V196.17l42.116-24.316,42.117,24.316Z" transform="translate(660.123 791.723)" fill="#171717"/>
          <path id="Path_33" data-name="Path 33" d="M-47.311,244.8l-42.116,24.316L-131.543,244.8V196.17l42.116-24.316,42.116,24.316Z" transform="translate(732.511 791.723)" fill="#4a4a4a"/>
          <path id="Path_34" data-name="Path 34" d="M-35.465,244.8l-42.116,24.316L-119.7,244.8V196.17l42.117-24.316,42.116,24.316Z" transform="translate(804.898 791.723)" fill="#383838"/>
          <path id="Path_35" data-name="Path 35" d="M-23.62,244.8l-42.116,24.316L-107.853,244.8V196.17l42.117-24.316L-23.62,196.17Z" transform="translate(877.286 791.723)" fill="#2b2b2b"/>
          <path id="Path_36" data-name="Path 36" d="M-11.774,244.8l-42.117,24.316L-96.008,244.8V196.17l42.116-24.316,42.117,24.316Z" transform="translate(949.674 791.723)" fill="#6b6b6b"/>
          <path id="Path_37" data-name="Path 37" d="M-136.15,255.038l-42.117,24.316-42.116-24.316V206.406l42.116-24.316,42.117,24.316Z" transform="translate(189.603 854.275)" fill="#4a4a4a"/>
          <path id="Path_38" data-name="Path 38" d="M-124.305,255.038l-42.116,24.316-42.116-24.316V206.406l42.116-24.316,42.116,24.316Z" transform="translate(261.991 854.275)" fill="#2e2e2e"/>
          <path id="Path_39" data-name="Path 39" d="M-112.459,255.038l-42.116,24.316-42.117-24.316V206.406l42.117-24.316,42.116,24.316Z" transform="translate(334.378 854.275)" fill="#636363"/>
          <path id="Path_40" data-name="Path 40" d="M-100.614,255.038l-42.116,24.316-42.117-24.316V206.406l42.117-24.316,42.116,24.316Z" transform="translate(406.766 854.275)" fill="#6b6b6b"/>
          <path id="Path_41" data-name="Path 41" d="M-88.769,255.038l-42.117,24.316L-173,255.038V206.406l42.116-24.316,42.117,24.316Z" transform="translate(479.154 854.275)" fill="#2e2e2e"/>
          <path id="Path_42" data-name="Path 42" d="M-76.923,255.038l-42.117,24.316-42.116-24.316V206.406l42.116-24.316,42.117,24.316Z" transform="translate(551.542 854.275)" fill="#6b6b6b"/>
          <path id="Path_43" data-name="Path 43" d="M-65.079,255.038-107.2,279.354l-42.116-24.316V206.406L-107.2,182.09l42.116,24.316Z" transform="translate(623.93 854.275)" fill="#4a4a4a"/>
          <path id="Path_44" data-name="Path 44" d="M-53.233,255.038l-42.116,24.316-42.117-24.316V206.406l42.117-24.316,42.116,24.316Z" transform="translate(696.317 854.275)" fill="#4a4a4a"/>
          <path id="Path_45" data-name="Path 45" d="M-41.388,255.038-83.5,279.354l-42.116-24.316V206.406L-83.5,182.09l42.117,24.316Z" transform="translate(768.705 854.275)" fill="#4a4a4a"/>
          <path id="Path_46" data-name="Path 46" d="M-29.542,255.038l-42.117,24.316-42.116-24.316V206.406l42.116-24.316,42.117,24.316Z" transform="translate(841.093 854.275)" fill="#121212"/>
          <path id="Path_47" data-name="Path 47" d="M-17.7,255.038l-42.116,24.316-42.116-24.316V206.406l42.116-24.316L-17.7,206.406Z" transform="translate(913.481 854.275)" fill="#4a4a4a"/>
          <path id="Path_48" data-name="Path 48" d="M-5.852,255.038l-42.116,24.316-42.117-24.316V206.406l42.117-24.316,42.116,24.316Z" transform="translate(985.868 854.275)" fill="#121212"/>
          <path id="Path_49" data-name="Path 49" d="M-142.073,224.293l-42.116,24.316-42.117-24.316V175.661l42.117-24.316,42.116,24.316Z" transform="translate(153.408 666.39)" fill="#636363"/>
          <path id="Path_50" data-name="Path 50" d="M-130.227,224.293l-42.116,24.316-42.117-24.316V175.661l42.117-24.316,42.116,24.316Z" transform="translate(225.796 666.39)" fill="#171717"/>
          <path id="Path_51" data-name="Path 51" d="M-118.382,224.293-160.5,248.609l-42.116-24.316V175.661l42.116-24.316,42.117,24.316Z" transform="translate(298.184 666.39)" fill="#4a4a4a"/>
          <path id="Path_52" data-name="Path 52" d="M-106.536,224.293l-42.117,24.316-42.116-24.316V175.661l42.116-24.316,42.117,24.316Z" transform="translate(370.572 666.39)" fill="#171717"/>
          <path id="Path_53" data-name="Path 53" d="M-94.692,224.293l-42.116,24.316-42.116-24.316V175.661l42.116-24.316,42.116,24.316Z" transform="translate(442.96 666.39)" fill="#4a4a4a"/>
          <path id="Path_54" data-name="Path 54" d="M-82.846,224.293l-42.116,24.316-42.117-24.316V175.661l42.117-24.316,42.116,24.316Z" transform="translate(515.347 666.39)" fill="#383838"/>
          <path id="Path_55" data-name="Path 55" d="M-71,224.293l-42.116,24.316-42.117-24.316V175.661l42.117-24.316L-71,175.661Z" transform="translate(587.735 666.39)" fill="#2b2b2b"/>
          <path id="Path_56" data-name="Path 56" d="M-59.155,224.293l-42.117,24.316-42.116-24.316V175.661l42.116-24.316,42.117,24.316Z" transform="translate(660.123 666.39)" fill="#4a4a4a"/>
          <path id="Path_57" data-name="Path 57" d="M-47.311,224.293l-42.116,24.316-42.116-24.316V175.661l42.116-24.316,42.116,24.316Z" transform="translate(732.511 666.39)" fill="#171717"/>
          <path id="Path_58" data-name="Path 58" d="M-35.465,224.293l-42.116,24.316L-119.7,224.293V175.661l42.117-24.316,42.116,24.316Z" transform="translate(804.898 666.39)" fill="#4a4a4a"/>
          <path id="Path_59" data-name="Path 59" d="M-23.62,224.293l-42.116,24.316-42.117-24.316V175.661l42.117-24.316,42.116,24.316Z" transform="translate(877.286 666.39)" fill="#6b6b6b"/>
          <path id="Path_60" data-name="Path 60" d="M-11.774,224.293l-42.117,24.316-42.116-24.316V175.661l42.116-24.316,42.117,24.316Z" transform="translate(949.674 666.39)" fill="#1a1a1a"/>
          <path id="Path_61" data-name="Path 61" d="M-136.15,234.529l-42.117,24.316-42.116-24.316V185.9l42.116-24.316L-136.15,185.9Z" transform="translate(189.603 728.942)" fill="#4a4a4a"/>
          <path id="Path_62" data-name="Path 62" d="M-124.305,234.529l-42.116,24.316-42.116-24.316V185.9l42.116-24.316,42.116,24.316Z" transform="translate(261.991 728.942)" fill="#383838"/>
          <path id="Path_63" data-name="Path 63" d="M-112.459,234.529l-42.116,24.316-42.117-24.316V185.9l42.117-24.316,42.116,24.316Z" transform="translate(334.378 728.942)" fill="#1a1a1a"/>
          <path id="Path_64" data-name="Path 64" d="M-100.614,234.529l-42.116,24.316-42.117-24.316V185.9l42.117-24.316,42.116,24.316Z" transform="translate(406.766 728.942)" fill="#171717"/>
          <path id="Path_65" data-name="Path 65" d="M-88.769,234.529l-42.117,24.316L-173,234.529V185.9l42.116-24.316L-88.769,185.9Z" transform="translate(479.154 728.942)" fill="#4a4a4a"/>
          <path id="Path_66" data-name="Path 66" d="M-76.923,234.529l-42.117,24.316-42.116-24.316V185.9l42.116-24.316L-76.923,185.9Z" transform="translate(551.542 728.942)" fill="#121212"/>
          <path id="Path_67" data-name="Path 67" d="M-65.079,234.529-107.2,258.844l-42.116-24.316V185.9l42.116-24.316L-65.079,185.9Z" transform="translate(623.93 728.942)" fill="#6b6b6b"/>
          <path id="Path_68" data-name="Path 68" d="M-53.233,234.529l-42.116,24.316-42.117-24.316V185.9l42.117-24.316L-53.233,185.9Z" transform="translate(696.317 728.942)" fill="#2b2b2b"/>
          <path id="Path_69" data-name="Path 69" d="M-41.388,234.529-83.5,258.844l-42.116-24.316V185.9L-83.5,161.581-41.388,185.9Z" transform="translate(768.705 728.942)" fill="#1a1a1a"/>
          <path id="Path_70" data-name="Path 70" d="M-29.542,234.529l-42.117,24.316-42.116-24.316V185.9l42.116-24.316L-29.542,185.9Z" transform="translate(841.093 728.942)" fill="#2e2e2e"/>
          <path id="Path_71" data-name="Path 71" d="M-17.7,234.529l-42.116,24.316-42.116-24.316V185.9l42.116-24.316L-17.7,185.9Z" transform="translate(913.481 728.942)" fill="#4a4a4a"/>
          <path id="Path_72" data-name="Path 72" d="M-5.852,234.529l-42.116,24.316-42.117-24.316V185.9l42.117-24.316L-5.852,185.9Z" transform="translate(985.868 728.942)" fill="#171717"/>
          <path id="Path_73" data-name="Path 73" d="M-142.073,203.784-184.189,228.1l-42.117-24.317V155.151l42.117-24.316,42.116,24.316Z" transform="translate(153.408 541.057)" fill="#171717"/>
          <path id="Path_74" data-name="Path 74" d="M-130.227,203.784-172.343,228.1l-42.117-24.317V155.151l42.117-24.316,42.116,24.316Z" transform="translate(225.796 541.057)" fill="#121212"/>
          <path id="Path_75" data-name="Path 75" d="M-118.382,203.784-160.5,228.1l-42.116-24.317V155.151l42.116-24.316,42.117,24.316Z" transform="translate(298.184 541.057)" fill="#2b2b2b"/>
          <path id="Path_76" data-name="Path 76" d="M-106.536,203.784-148.653,228.1l-42.116-24.317V155.151l42.116-24.316,42.117,24.316Z" transform="translate(370.572 541.057)" fill="#4a4a4a"/>
          <path id="Path_77" data-name="Path 77" d="M-94.692,203.784-136.808,228.1l-42.116-24.317V155.151l42.116-24.316,42.116,24.316Z" transform="translate(442.96 541.057)" fill="#4a4a4a"/>
          <path id="Path_78" data-name="Path 78" d="M-82.846,203.784-124.962,228.1l-42.117-24.317V155.151l42.117-24.316,42.116,24.316Z" transform="translate(515.347 541.057)" fill="#2b2b2b"/>
          <path id="Path_79" data-name="Path 79" d="M-71,203.784-113.117,228.1l-42.117-24.317V155.151l42.117-24.316L-71,155.151Z" transform="translate(587.735 541.057)" fill="#121212"/>
          <path id="Path_80" data-name="Path 80" d="M-59.155,203.784-101.272,228.1l-42.116-24.317V155.151l42.116-24.316,42.117,24.316Z" transform="translate(660.123 541.057)" fill="#171717"/>
          <path id="Path_81" data-name="Path 81" d="M-47.311,203.784-89.427,228.1l-42.116-24.317V155.151l42.116-24.316,42.116,24.316Z" transform="translate(732.511 541.057)" fill="#4a4a4a"/>
          <path id="Path_82" data-name="Path 82" d="M-35.465,203.784-77.581,228.1-119.7,203.784V155.151l42.117-24.316,42.116,24.316Z" transform="translate(804.898 541.057)" fill="#1a1a1a"/>
          <path id="Path_83" data-name="Path 83" d="M-23.62,203.784-65.736,228.1l-42.117-24.317V155.151l42.117-24.316,42.116,24.316Z" transform="translate(877.286 541.057)" fill="#4a4a4a"/>
          <path id="Path_84" data-name="Path 84" d="M-11.774,203.784-53.891,228.1l-42.116-24.317V155.151l42.116-24.316,42.117,24.316Z" transform="translate(949.674 541.057)" fill="#171717"/>
          <path id="Path_85" data-name="Path 85" d="M-136.15,214.019l-42.117,24.316-42.116-24.316V165.388l42.116-24.316,42.117,24.316Z" transform="translate(189.603 603.609)" fill="#4a4a4a"/>
          <path id="Path_86" data-name="Path 86" d="M-124.305,214.019l-42.116,24.316-42.116-24.316V165.388l42.116-24.316,42.116,24.316Z" transform="translate(261.991 603.609)" fill="#4a4a4a"/>
          <path id="Path_87" data-name="Path 87" d="M-112.459,214.019l-42.116,24.316-42.117-24.316V165.388l42.117-24.316,42.116,24.316Z" transform="translate(334.378 603.609)" fill="#1a1a1a"/>
          <path id="Path_88" data-name="Path 88" d="M-100.614,214.019l-42.116,24.316-42.117-24.316V165.388l42.117-24.316,42.116,24.316Z" transform="translate(406.766 603.609)" fill="#2e2e2e"/>
          <path id="Path_89" data-name="Path 89" d="M-88.769,214.019l-42.117,24.316L-173,214.019V165.388l42.116-24.316,42.117,24.316Z" transform="translate(479.154 603.609)" fill="#636363"/>
          <path id="Path_90" data-name="Path 90" d="M-76.923,214.019l-42.117,24.316-42.116-24.316V165.388l42.116-24.316,42.117,24.316Z" transform="translate(551.542 603.609)" fill="#4a4a4a"/>
          <path id="Path_91" data-name="Path 91" d="M-65.079,214.019-107.2,238.336l-42.116-24.316V165.388l42.116-24.316,42.116,24.316Z" transform="translate(623.93 603.609)" fill="#2e2e2e"/>
          <path id="Path_92" data-name="Path 92" d="M-53.233,214.019l-42.116,24.316-42.117-24.316V165.388l42.117-24.316,42.116,24.316Z" transform="translate(696.317 603.609)" fill="#4a4a4a"/>
          <path id="Path_93" data-name="Path 93" d="M-41.388,214.019-83.5,238.336l-42.116-24.316V165.388L-83.5,141.072l42.117,24.316Z" transform="translate(768.705 603.609)" fill="#121212"/>
          <path id="Path_94" data-name="Path 94" d="M-29.542,214.019l-42.117,24.316-42.116-24.316V165.388l42.116-24.316,42.117,24.316Z" transform="translate(841.093 603.609)" fill="#2b2b2b"/>
          <path id="Path_95" data-name="Path 95" d="M-17.7,214.019l-42.116,24.316-42.116-24.316V165.388l42.116-24.316L-17.7,165.388Z" transform="translate(913.481 603.609)" fill="#2e2e2e"/>
          <path id="Path_96" data-name="Path 96" d="M-5.852,214.019l-42.116,24.316-42.117-24.316V165.388l42.117-24.316,42.116,24.316Z" transform="translate(985.868 603.609)" fill="#4a4a4a"/>
          <path id="Path_97" data-name="Path 97" d="M-142.073,183.275l-42.116,24.316-42.117-24.316V134.643l42.117-24.316,42.116,24.316Z" transform="translate(153.408 415.723)" fill="#121212"/>
          <path id="Path_98" data-name="Path 98" d="M-130.227,183.275l-42.116,24.316-42.117-24.316V134.643l42.117-24.316,42.116,24.316Z" transform="translate(225.796 415.723)" fill="#2b2b2b"/>
          <path id="Path_99" data-name="Path 99" d="M-118.382,183.275-160.5,207.591l-42.116-24.316V134.643l42.116-24.316,42.117,24.316Z" transform="translate(298.184 415.723)" fill="#636363"/>
          <path id="Path_100" data-name="Path 100" d="M-106.536,183.275l-42.117,24.316-42.116-24.316V134.643l42.116-24.316,42.117,24.316Z" transform="translate(370.572 415.723)" fill="#4a4a4a"/>
          <path id="Path_101" data-name="Path 101" d="M-94.692,183.275l-42.116,24.316-42.116-24.316V134.643l42.116-24.316,42.116,24.316Z" transform="translate(442.96 415.723)" fill="#171717"/>
          <path id="Path_102" data-name="Path 102" d="M-82.846,183.275l-42.116,24.316-42.117-24.316V134.643l42.117-24.316,42.116,24.316Z" transform="translate(515.347 415.723)" fill="#2b2b2b"/>
          <path id="Path_103" data-name="Path 103" d="M-71,183.275l-42.116,24.316-42.117-24.316V134.643l42.117-24.316L-71,134.643Z" transform="translate(587.735 415.723)" fill="#4a4a4a"/>
          <path id="Path_104" data-name="Path 104" d="M-59.155,183.275l-42.117,24.316-42.116-24.316V134.643l42.116-24.316,42.117,24.316Z" transform="translate(660.123 415.723)" fill="#121212"/>
          <path id="Path_105" data-name="Path 105" d="M-47.311,183.275l-42.116,24.316-42.116-24.316V134.643l42.116-24.316,42.116,24.316Z" transform="translate(732.511 415.723)" fill="#2b2b2b"/>
          <path id="Path_106" data-name="Path 106" d="M-35.465,183.275l-42.116,24.316L-119.7,183.275V134.643l42.117-24.316,42.116,24.316Z" transform="translate(804.898 415.723)" fill="#1a1a1a"/>
          <path id="Path_107" data-name="Path 107" d="M-23.62,183.275l-42.116,24.316-42.117-24.316V134.643l42.117-24.316,42.116,24.316Z" transform="translate(877.286 415.723)" fill="#171717"/>
          <path id="Path_108" data-name="Path 108" d="M-11.774,183.275l-42.117,24.316-42.116-24.316V134.643l42.116-24.316,42.117,24.316Z" transform="translate(949.674 415.723)" fill="#4a4a4a"/>
          <path id="Path_109" data-name="Path 109" d="M-136.15,193.511l-42.117,24.316-42.116-24.316V144.879l42.116-24.316,42.117,24.316Z" transform="translate(189.603 478.276)" fill="#636363"/>
          <path id="Path_110" data-name="Path 110" d="M-124.305,193.511l-42.116,24.316-42.116-24.316V144.879l42.116-24.316,42.116,24.316Z" transform="translate(261.991 478.276)" fill="#2e2e2e"/>
          <path id="Path_111" data-name="Path 111" d="M-112.459,193.511l-42.116,24.316-42.117-24.316V144.879l42.117-24.316,42.116,24.316Z" transform="translate(334.378 478.276)" fill="#383838"/>
          <path id="Path_112" data-name="Path 112" d="M-100.614,193.511l-42.116,24.316-42.117-24.316V144.879l42.117-24.316,42.116,24.316Z" transform="translate(406.766 478.276)" fill="#6b6b6b"/>
          <path id="Path_113" data-name="Path 113" d="M-88.769,193.511l-42.117,24.316L-173,193.511V144.879l42.116-24.316,42.117,24.316Z" transform="translate(479.154 478.276)" fill="#636363"/>
          <path id="Path_114" data-name="Path 114" d="M-76.923,193.511l-42.117,24.316-42.116-24.316V144.879l42.116-24.316,42.117,24.316Z" transform="translate(551.542 478.276)" fill="#383838"/>
          <path id="Path_115" data-name="Path 115" d="M-65.079,193.511-107.2,217.827l-42.116-24.316V144.879l42.116-24.316,42.116,24.316Z" transform="translate(623.93 478.276)" fill="#4a4a4a"/>
          <path id="Path_116" data-name="Path 116" d="M-53.233,193.511l-42.116,24.316-42.117-24.316V144.879l42.117-24.316,42.116,24.316Z" transform="translate(696.317 478.276)" fill="#6b6b6b"/>
          <path id="Path_117" data-name="Path 117" d="M-41.388,193.511-83.5,217.827l-42.116-24.316V144.879L-83.5,120.562l42.117,24.316Z" transform="translate(768.705 478.276)" fill="#2e2e2e"/>
          <path id="Path_118" data-name="Path 118" d="M-29.542,193.511l-42.117,24.316-42.116-24.316V144.879l42.116-24.316,42.117,24.316Z" transform="translate(841.093 478.276)" fill="#4a4a4a"/>
          <path id="Path_119" data-name="Path 119" d="M-17.7,193.511l-42.116,24.316-42.116-24.316V144.879l42.116-24.316L-17.7,144.879Z" transform="translate(913.481 478.276)" fill="#121212"/>
          <path id="Path_120" data-name="Path 120" d="M-5.852,193.511l-42.116,24.316-42.117-24.316V144.879l42.117-24.316,42.116,24.316Z" transform="translate(985.868 478.276)" fill="#1a1a1a"/>
          <path id="Path_121" data-name="Path 121" d="M.084,265.311l-42.116,24.316-42.117-24.316V216.679l42.117-24.316L.084,216.679Z" transform="translate(1022.142 917.056)" fill="#171717"/>
          <path id="Path_122" data-name="Path 122" d="M11.929,265.311l-42.116,24.316L-72.3,265.311V216.679l42.117-24.316,42.116,24.316Z" transform="translate(1094.53 917.056)" fill="#1a1a1a"/>
          <path id="Path_123" data-name="Path 123" d="M23.775,265.311l-42.117,24.316-42.116-24.316V216.679l42.116-24.316,42.117,24.316Z" transform="translate(1166.918 917.056)" fill="#121212"/>
          <path id="Path_124" data-name="Path 124" d="M35.62,265.311-6.5,289.627l-42.116-24.316V216.679L-6.5,192.363,35.62,216.679Z" transform="translate(1239.306 917.056)" fill="#4a4a4a"/>
          <path id="Path_125" data-name="Path 125" d="M47.465,265.311,5.348,289.627l-42.116-24.316V216.679L5.348,192.363l42.116,24.316Z" transform="translate(1311.694 917.056)" fill="#383838"/>
          <path id="Path_126" data-name="Path 126" d="M59.311,265.311,17.194,289.627l-42.117-24.316V216.679l42.117-24.316,42.116,24.316Z" transform="translate(1384.081 917.056)" fill="#636363"/>
          <path id="Path_127" data-name="Path 127" d="M71.156,265.311,29.039,289.627l-42.116-24.316V216.679l42.116-24.316,42.117,24.316Z" transform="translate(1456.469 917.056)" fill="#4a4a4a"/>
          <path id="Path_128" data-name="Path 128" d="M83,265.311,40.884,289.627-1.232,265.311V216.679l42.116-24.316L83,216.679Z" transform="translate(1528.857 917.056)" fill="#2b2b2b"/>
          <path id="Path_129" data-name="Path 129" d="M94.846,265.311,52.73,289.627,10.613,265.311V216.679L52.73,192.363l42.116,24.316Z" transform="translate(1601.245 917.056)" fill="#636363"/>
          <path id="Path_130" data-name="Path 130" d="M106.692,265.311,64.575,289.627,22.458,265.311V216.679l42.117-24.316,42.116,24.316Z" transform="translate(1673.633 917.056)" fill="#4a4a4a"/>
          <path id="Path_131" data-name="Path 131" d="M118.537,265.311,76.421,289.627,34.3,265.311V216.679l42.117-24.316,42.116,24.316Z" transform="translate(1746.021 917.056)" fill="#383838"/>
          <path id="Path_132" data-name="Path 132" d="M130.382,265.311,88.265,289.627,46.149,265.311V216.679l42.116-24.316,42.117,24.316Z" transform="translate(1818.408 917.056)" fill="#1a1a1a"/>
          <path id="Path_133" data-name="Path 133" d="M6.007,275.547-36.11,299.863l-42.116-24.317V226.914L-36.11,202.6,6.007,226.914Z" transform="translate(1058.337 979.609)" fill="#2b2b2b"/>
          <path id="Path_134" data-name="Path 134" d="M17.851,275.547l-42.116,24.317-42.116-24.317V226.914L-24.265,202.6l42.116,24.316Z" transform="translate(1130.725 979.609)" fill="#171717"/>
          <path id="Path_135" data-name="Path 135" d="M29.7,275.547l-42.116,24.317-42.117-24.317V226.914L-12.419,202.6,29.7,226.914Z" transform="translate(1203.112 979.609)" fill="#2e2e2e"/>
          <path id="Path_136" data-name="Path 136" d="M41.543,275.547-.574,299.863l-42.117-24.317V226.914L-.574,202.6l42.116,24.316Z" transform="translate(1275.5 979.609)" fill="#6b6b6b"/>
          <path id="Path_137" data-name="Path 137" d="M53.388,275.547,11.271,299.863l-42.116-24.317V226.914L11.271,202.6l42.117,24.316Z" transform="translate(1347.888 979.609)" fill="#2b2b2b"/>
          <path id="Path_138" data-name="Path 138" d="M65.233,275.547,23.116,299.863-19,275.547V226.914L23.116,202.6l42.116,24.316Z" transform="translate(1420.276 979.609)" fill="#171717"/>
          <path id="Path_139" data-name="Path 139" d="M77.078,275.547,34.962,299.863-7.155,275.547V226.914L34.962,202.6l42.116,24.316Z" transform="translate(1492.663 979.609)" fill="#2e2e2e"/>
          <path id="Path_140" data-name="Path 140" d="M88.924,275.547,46.807,299.863,4.691,275.547V226.914L46.807,202.6l42.116,24.316Z" transform="translate(1565.051 979.609)" fill="#4a4a4a"/>
          <path id="Path_141" data-name="Path 141" d="M100.769,275.547,58.652,299.863,16.536,275.547V226.914L58.652,202.6l42.117,24.316Z" transform="translate(1637.439 979.609)" fill="#383838"/>
          <path id="Path_142" data-name="Path 142" d="M112.614,275.547,70.5,299.863,28.381,275.547V226.914L70.5,202.6l42.117,24.316Z" transform="translate(1709.827 979.609)" fill="#4a4a4a"/>
          <path id="Path_143" data-name="Path 143" d="M124.459,275.547,82.343,299.863,40.226,275.547V226.914L82.343,202.6l42.116,24.316Z" transform="translate(1782.215 979.609)" fill="#121212"/>
          <path id="Path_144" data-name="Path 144" d="M136.3,275.547,94.189,299.863,52.072,275.547V226.914L94.189,202.6,136.3,226.914Z" transform="translate(1854.602 979.609)" fill="#6b6b6b"/>
          <path id="Path_145" data-name="Path 145" d="M.084,244.8l-42.116,24.316L-84.149,244.8V196.17l42.117-24.316L.084,196.17Z" transform="translate(1022.142 791.723)" fill="#2b2b2b"/>
          <path id="Path_146" data-name="Path 146" d="M11.929,244.8l-42.116,24.316L-72.3,244.8V196.17l42.117-24.316L11.929,196.17Z" transform="translate(1094.53 791.723)" fill="#121212"/>
          <path id="Path_147" data-name="Path 147" d="M23.775,244.8l-42.117,24.316L-60.459,244.8V196.17l42.116-24.316L23.775,196.17Z" transform="translate(1166.918 791.723)" fill="#2b2b2b"/>
          <path id="Path_148" data-name="Path 148" d="M35.62,244.8-6.5,269.118-48.613,244.8V196.17L-6.5,171.854,35.62,196.17Z" transform="translate(1239.306 791.723)" fill="#4a4a4a"/>
          <path id="Path_149" data-name="Path 149" d="M47.465,244.8,5.348,269.118-36.768,244.8V196.17L5.348,171.854,47.465,196.17Z" transform="translate(1311.694 791.723)" fill="#4a4a4a"/>
          <path id="Path_150" data-name="Path 150" d="M59.311,244.8,17.194,269.118-24.923,244.8V196.17l42.117-24.316L59.311,196.17Z" transform="translate(1384.081 791.723)" fill="#171717"/>
          <path id="Path_151" data-name="Path 151" d="M71.156,244.8,29.039,269.118-13.077,244.8V196.17l42.116-24.316L71.156,196.17Z" transform="translate(1456.469 791.723)" fill="#636363"/>
          <path id="Path_152" data-name="Path 152" d="M83,244.8,40.884,269.118-1.232,244.8V196.17l42.116-24.316L83,196.17Z" transform="translate(1528.857 791.723)" fill="#171717"/>
          <path id="Path_153" data-name="Path 153" d="M94.846,244.8,52.73,269.118,10.613,244.8V196.17L52.73,171.854,94.846,196.17Z" transform="translate(1601.245 791.723)" fill="#4a4a4a"/>
          <path id="Path_154" data-name="Path 154" d="M106.692,244.8,64.575,269.118,22.458,244.8V196.17l42.117-24.316,42.116,24.316Z" transform="translate(1673.633 791.723)" fill="#383838"/>
          <path id="Path_155" data-name="Path 155" d="M118.537,244.8,76.421,269.118,34.3,244.8V196.17l42.117-24.316,42.116,24.316Z" transform="translate(1746.021 791.723)" fill="#2b2b2b"/>
          <path id="Path_156" data-name="Path 156" d="M130.382,244.8,88.265,269.118,46.149,244.8V196.17l42.116-24.316,42.117,24.316Z" transform="translate(1818.408 791.723)" fill="#6b6b6b"/>
          <path id="Path_157" data-name="Path 157" d="M6.007,255.038-36.11,279.354l-42.116-24.316V206.406L-36.11,182.09,6.007,206.406Z" transform="translate(1058.337 854.275)" fill="#4a4a4a"/>
          <path id="Path_158" data-name="Path 158" d="M17.851,255.038l-42.116,24.316-42.116-24.316V206.406l42.116-24.316,42.116,24.316Z" transform="translate(1130.725 854.275)" fill="#2e2e2e"/>
          <path id="Path_159" data-name="Path 159" d="M29.7,255.038l-42.116,24.316-42.117-24.316V206.406l42.117-24.316L29.7,206.406Z" transform="translate(1203.112 854.275)" fill="#636363"/>
          <path id="Path_160" data-name="Path 160" d="M41.543,255.038-.574,279.354l-42.117-24.316V206.406L-.574,182.09l42.116,24.316Z" transform="translate(1275.5 854.275)" fill="#6b6b6b"/>
          <path id="Path_161" data-name="Path 161" d="M53.388,255.038,11.271,279.354l-42.116-24.316V206.406L11.271,182.09l42.117,24.316Z" transform="translate(1347.888 854.275)" fill="#2e2e2e"/>
          <path id="Path_162" data-name="Path 162" d="M65.233,255.038,23.116,279.354-19,255.038V206.406L23.116,182.09l42.116,24.316Z" transform="translate(1420.276 854.275)" fill="#6b6b6b"/>
          <path id="Path_163" data-name="Path 163" d="M77.078,255.038,34.962,279.354-7.155,255.038V206.406L34.962,182.09l42.116,24.316Z" transform="translate(1492.663 854.275)" fill="#4a4a4a"/>
          <path id="Path_164" data-name="Path 164" d="M88.924,255.038,46.807,279.354,4.691,255.038V206.406L46.807,182.09l42.116,24.316Z" transform="translate(1565.051 854.275)" fill="#4a4a4a"/>
          <path id="Path_165" data-name="Path 165" d="M100.769,255.038,58.652,279.354,16.536,255.038V206.406L58.652,182.09l42.117,24.316Z" transform="translate(1637.439 854.275)" fill="#4a4a4a"/>
          <path id="Path_166" data-name="Path 166" d="M112.614,255.038,70.5,279.354,28.381,255.038V206.406L70.5,182.09l42.117,24.316Z" transform="translate(1709.827 854.275)" fill="#121212"/>
          <path id="Path_167" data-name="Path 167" d="M124.459,255.038,82.343,279.354,40.226,255.038V206.406L82.343,182.09l42.116,24.316Z" transform="translate(1782.215 854.275)" fill="#4a4a4a"/>
          <path id="Path_168" data-name="Path 168" d="M136.3,255.038,94.189,279.354,52.072,255.038V206.406L94.189,182.09,136.3,206.406Z" transform="translate(1854.602 854.275)" fill="#121212"/>
          <path id="Path_169" data-name="Path 169" d="M.084,224.293l-42.116,24.316-42.117-24.316V175.661l42.117-24.316L.084,175.661Z" transform="translate(1022.142 666.39)" fill="#636363"/>
          <path id="Path_170" data-name="Path 170" d="M11.929,224.293l-42.116,24.316L-72.3,224.293V175.661l42.117-24.316,42.116,24.316Z" transform="translate(1094.53 666.39)" fill="#171717"/>
          <path id="Path_171" data-name="Path 171" d="M23.775,224.293l-42.117,24.316-42.116-24.316V175.661l42.116-24.316,42.117,24.316Z" transform="translate(1166.918 666.39)" fill="#4a4a4a"/>
          <path id="Path_172" data-name="Path 172" d="M35.62,224.293-6.5,248.609l-42.116-24.316V175.661L-6.5,151.345,35.62,175.661Z" transform="translate(1239.306 666.39)" fill="#171717"/>
          <path id="Path_173" data-name="Path 173" d="M47.465,224.293,5.348,248.609l-42.116-24.316V175.661L5.348,151.345l42.116,24.316Z" transform="translate(1311.694 666.39)" fill="#4a4a4a"/>
          <path id="Path_174" data-name="Path 174" d="M59.311,224.293,17.194,248.609l-42.117-24.316V175.661l42.117-24.316,42.116,24.316Z" transform="translate(1384.081 666.39)" fill="#383838"/>
          <path id="Path_175" data-name="Path 175" d="M71.156,224.293,29.039,248.609l-42.116-24.316V175.661l42.116-24.316,42.117,24.316Z" transform="translate(1456.469 666.39)" fill="#2b2b2b"/>
          <path id="Path_176" data-name="Path 176" d="M83,224.293,40.884,248.609-1.232,224.293V175.661l42.116-24.316L83,175.661Z" transform="translate(1528.857 666.39)" fill="#4a4a4a"/>
          <path id="Path_177" data-name="Path 177" d="M94.846,224.293,52.73,248.609,10.613,224.293V175.661L52.73,151.345l42.116,24.316Z" transform="translate(1601.245 666.39)" fill="#171717"/>
          <path id="Path_178" data-name="Path 178" d="M106.692,224.293,64.575,248.609,22.458,224.293V175.661l42.117-24.316,42.116,24.316Z" transform="translate(1673.633 666.39)" fill="#4a4a4a"/>
          <path id="Path_179" data-name="Path 179" d="M118.537,224.293,76.421,248.609,34.3,224.293V175.661l42.117-24.316,42.116,24.316Z" transform="translate(1746.021 666.39)" fill="#6b6b6b"/>
          <path id="Path_180" data-name="Path 180" d="M130.382,224.293,88.265,248.609,46.149,224.293V175.661l42.116-24.316,42.117,24.316Z" transform="translate(1818.408 666.39)" fill="#1a1a1a"/>
          <path id="Path_181" data-name="Path 181" d="M6.007,234.529-36.11,258.844l-42.116-24.316V185.9l42.116-24.316L6.007,185.9Z" transform="translate(1058.337 728.942)" fill="#4a4a4a"/>
          <path id="Path_182" data-name="Path 182" d="M17.851,234.529l-42.116,24.316-42.116-24.316V185.9l42.116-24.316L17.851,185.9Z" transform="translate(1130.725 728.942)" fill="#383838"/>
          <path id="Path_183" data-name="Path 183" d="M29.7,234.529l-42.116,24.316-42.117-24.316V185.9l42.117-24.316L29.7,185.9Z" transform="translate(1203.112 728.942)" fill="#1a1a1a"/>
          <path id="Path_184" data-name="Path 184" d="M41.543,234.529-.574,258.844l-42.117-24.316V185.9L-.574,161.581,41.543,185.9Z" transform="translate(1275.5 728.942)" fill="#171717"/>
          <path id="Path_185" data-name="Path 185" d="M53.388,234.529,11.271,258.844l-42.116-24.316V185.9l42.116-24.316L53.388,185.9Z" transform="translate(1347.888 728.942)" fill="#4a4a4a"/>
          <path id="Path_186" data-name="Path 186" d="M65.233,234.529,23.116,258.844-19,234.529V185.9l42.116-24.316L65.233,185.9Z" transform="translate(1420.276 728.942)" fill="#121212"/>
          <path id="Path_187" data-name="Path 187" d="M77.078,234.529,34.962,258.844-7.155,234.529V185.9l42.117-24.316L77.078,185.9Z" transform="translate(1492.663 728.942)" fill="#6b6b6b"/>
          <path id="Path_188" data-name="Path 188" d="M88.924,234.529,46.807,258.844,4.691,234.529V185.9l42.117-24.316L88.924,185.9Z" transform="translate(1565.051 728.942)" fill="#2b2b2b"/>
          <path id="Path_189" data-name="Path 189" d="M100.769,234.529,58.652,258.844,16.536,234.529V185.9l42.116-24.316L100.769,185.9Z" transform="translate(1637.439 728.942)" fill="#1a1a1a"/>
          <path id="Path_190" data-name="Path 190" d="M112.614,234.529,70.5,258.844,28.381,234.529V185.9L70.5,161.581,112.614,185.9Z" transform="translate(1709.827 728.942)" fill="#2e2e2e"/>
          <path id="Path_191" data-name="Path 191" d="M124.459,234.529,82.343,258.844,40.226,234.529V185.9l42.116-24.316L124.459,185.9Z" transform="translate(1782.215 728.942)" fill="#4a4a4a"/>
          <path id="Path_192" data-name="Path 192" d="M136.3,234.529,94.189,258.844,52.072,234.529V185.9l42.117-24.316L136.3,185.9Z" transform="translate(1854.602 728.942)" fill="#171717"/>
          <path id="Path_193" data-name="Path 193" d="M.084,203.784-42.032,228.1l-42.117-24.317V155.151l42.117-24.316L.084,155.151Z" transform="translate(1022.142 541.057)" fill="#171717"/>
          <path id="Path_194" data-name="Path 194" d="M11.929,203.784-30.187,228.1-72.3,203.784V155.151l42.117-24.316,42.116,24.316Z" transform="translate(1094.53 541.057)" fill="#121212"/>
          <path id="Path_195" data-name="Path 195" d="M23.775,203.784-18.342,228.1l-42.116-24.317V155.151l42.116-24.316,42.117,24.316Z" transform="translate(1166.918 541.057)" fill="#2b2b2b"/>
          <path id="Path_196" data-name="Path 196" d="M35.62,203.784-6.5,228.1l-42.116-24.317V155.151L-6.5,130.836,35.62,155.151Z" transform="translate(1239.306 541.057)" fill="#4a4a4a"/>
          <path id="Path_197" data-name="Path 197" d="M47.465,203.784,5.348,228.1l-42.116-24.317V155.151L5.348,130.836l42.116,24.316Z" transform="translate(1311.694 541.057)" fill="#4a4a4a"/>
          <path id="Path_198" data-name="Path 198" d="M59.311,203.784,17.194,228.1l-42.117-24.317V155.151l42.117-24.316,42.116,24.316Z" transform="translate(1384.081 541.057)" fill="#2b2b2b"/>
          <path id="Path_199" data-name="Path 199" d="M71.156,203.784,29.039,228.1l-42.116-24.317V155.151l42.116-24.316,42.117,24.316Z" transform="translate(1456.469 541.057)" fill="#121212"/>
          <path id="Path_200" data-name="Path 200" d="M83,203.784,40.884,228.1-1.232,203.784V155.151l42.116-24.316L83,155.151Z" transform="translate(1528.857 541.057)" fill="#171717"/>
          <path id="Path_201" data-name="Path 201" d="M94.846,203.784,52.73,228.1,10.613,203.784V155.151L52.73,130.836l42.116,24.316Z" transform="translate(1601.245 541.057)" fill="#4a4a4a"/>
          <path id="Path_202" data-name="Path 202" d="M106.692,203.784,64.575,228.1,22.458,203.784V155.151l42.117-24.316,42.116,24.316Z" transform="translate(1673.633 541.057)" fill="#1a1a1a"/>
          <path id="Path_203" data-name="Path 203" d="M118.537,203.784,76.421,228.1,34.3,203.784V155.151l42.117-24.316,42.116,24.316Z" transform="translate(1746.021 541.057)" fill="#4a4a4a"/>
          <path id="Path_204" data-name="Path 204" d="M130.382,203.784,88.265,228.1,46.149,203.784V155.151l42.116-24.316,42.117,24.316Z" transform="translate(1818.408 541.057)" fill="#171717"/>
          <path id="Path_205" data-name="Path 205" d="M6.007,214.019-36.11,238.336l-42.116-24.316V165.388l42.116-24.316L6.007,165.388Z" transform="translate(1058.337 603.609)" fill="#4a4a4a"/>
          <path id="Path_206" data-name="Path 206" d="M17.851,214.019l-42.116,24.316-42.116-24.316V165.388l42.116-24.316,42.116,24.316Z" transform="translate(1130.725 603.609)" fill="#4a4a4a"/>
          <path id="Path_207" data-name="Path 207" d="M29.7,214.019l-42.116,24.316-42.117-24.316V165.388l42.117-24.316L29.7,165.388Z" transform="translate(1203.112 603.609)" fill="#1a1a1a"/>
          <path id="Path_208" data-name="Path 208" d="M41.543,214.019-.574,238.336l-42.117-24.316V165.388L-.574,141.072l42.116,24.316Z" transform="translate(1275.5 603.609)" fill="#2e2e2e"/>
          <path id="Path_209" data-name="Path 209" d="M53.388,214.019,11.271,238.336l-42.116-24.316V165.388l42.116-24.316,42.117,24.316Z" transform="translate(1347.888 603.609)" fill="#636363"/>
          <path id="Path_210" data-name="Path 210" d="M65.233,214.019,23.116,238.336-19,214.019V165.388l42.116-24.316,42.116,24.316Z" transform="translate(1420.276 603.609)" fill="#4a4a4a"/>
          <path id="Path_211" data-name="Path 211" d="M77.078,214.019,34.962,238.336-7.155,214.019V165.388l42.117-24.316,42.116,24.316Z" transform="translate(1492.663 603.609)" fill="#2e2e2e"/>
          <path id="Path_212" data-name="Path 212" d="M88.924,214.019,46.807,238.336,4.691,214.019V165.388l42.117-24.316,42.116,24.316Z" transform="translate(1565.051 603.609)" fill="#4a4a4a"/>
          <path id="Path_213" data-name="Path 213" d="M100.769,214.019,58.652,238.336,16.536,214.019V165.388l42.116-24.316,42.117,24.316Z" transform="translate(1637.439 603.609)" fill="#121212"/>
          <path id="Path_214" data-name="Path 214" d="M112.614,214.019,70.5,238.336,28.381,214.019V165.388L70.5,141.072l42.117,24.316Z" transform="translate(1709.827 603.609)" fill="#2b2b2b"/>
          <path id="Path_215" data-name="Path 215" d="M124.459,214.019,82.343,238.336,40.226,214.019V165.388l42.116-24.316,42.116,24.316Z" transform="translate(1782.215 603.609)" fill="#2e2e2e"/>
          <path id="Path_216" data-name="Path 216" d="M136.3,214.019,94.189,238.336,52.072,214.019V165.388l42.117-24.316L136.3,165.388Z" transform="translate(1854.602 603.609)" fill="#4a4a4a"/>
          <path id="Path_217" data-name="Path 217" d="M.084,183.275l-42.116,24.316-42.117-24.316V134.643l42.117-24.316L.084,134.643Z" transform="translate(1022.142 415.723)" fill="#121212"/>
          <path id="Path_218" data-name="Path 218" d="M11.929,183.275l-42.116,24.316L-72.3,183.275V134.643l42.117-24.316,42.116,24.316Z" transform="translate(1094.53 415.723)" fill="#2b2b2b"/>
          <path id="Path_219" data-name="Path 219" d="M23.775,183.275l-42.117,24.316-42.116-24.316V134.643l42.116-24.316,42.117,24.316Z" transform="translate(1166.918 415.723)" fill="#636363"/>
          <path id="Path_220" data-name="Path 220" d="M35.62,183.275-6.5,207.591l-42.116-24.316V134.643L-6.5,110.327,35.62,134.643Z" transform="translate(1239.306 415.723)" fill="#4a4a4a"/>
          <path id="Path_221" data-name="Path 221" d="M47.465,183.275,5.348,207.591l-42.116-24.316V134.643L5.348,110.327l42.116,24.316Z" transform="translate(1311.694 415.723)" fill="#171717"/>
          <path id="Path_222" data-name="Path 222" d="M59.311,183.275,17.194,207.591l-42.117-24.316V134.643l42.117-24.316,42.116,24.316Z" transform="translate(1384.081 415.723)" fill="#2b2b2b"/>
          <path id="Path_223" data-name="Path 223" d="M71.156,183.275,29.039,207.591l-42.116-24.316V134.643l42.116-24.316,42.117,24.316Z" transform="translate(1456.469 415.723)" fill="#4a4a4a"/>
          <path id="Path_224" data-name="Path 224" d="M83,183.275,40.884,207.591-1.232,183.275V134.643l42.116-24.316L83,134.643Z" transform="translate(1528.857 415.723)" fill="#121212"/>
          <path id="Path_225" data-name="Path 225" d="M94.846,183.275,52.73,207.591,10.613,183.275V134.643L52.73,110.327l42.116,24.316Z" transform="translate(1601.245 415.723)" fill="#2b2b2b"/>
          <path id="Path_226" data-name="Path 226" d="M106.692,183.275,64.575,207.591,22.458,183.275V134.643l42.117-24.316,42.116,24.316Z" transform="translate(1673.633 415.723)" fill="#1a1a1a"/>
          <path id="Path_227" data-name="Path 227" d="M118.537,183.275,76.421,207.591,34.3,183.275V134.643l42.117-24.316,42.116,24.316Z" transform="translate(1746.021 415.723)" fill="#171717"/>
          <path id="Path_228" data-name="Path 228" d="M130.382,183.275,88.265,207.591,46.149,183.275V134.643l42.116-24.316,42.117,24.316Z" transform="translate(1818.408 415.723)" fill="#4a4a4a"/>
          <path id="Path_229" data-name="Path 229" d="M6.007,193.511-36.11,217.827l-42.116-24.316V144.879l42.116-24.316L6.007,144.879Z" transform="translate(1058.337 478.276)" fill="#636363"/>
          <path id="Path_230" data-name="Path 230" d="M17.851,193.511l-42.116,24.316-42.116-24.316V144.879l42.116-24.316,42.116,24.316Z" transform="translate(1130.725 478.276)" fill="#2e2e2e"/>
          <path id="Path_231" data-name="Path 231" d="M29.7,193.511l-42.116,24.316-42.117-24.316V144.879l42.117-24.316L29.7,144.879Z" transform="translate(1203.112 478.276)" fill="#383838"/>
          <path id="Path_232" data-name="Path 232" d="M41.543,193.511-.574,217.827l-42.117-24.316V144.879L-.574,120.562l42.116,24.316Z" transform="translate(1275.5 478.276)" fill="#6b6b6b"/>
          <path id="Path_233" data-name="Path 233" d="M53.388,193.511,11.271,217.827l-42.116-24.316V144.879l42.116-24.316,42.117,24.316Z" transform="translate(1347.888 478.276)" fill="#636363"/>
          <path id="Path_234" data-name="Path 234" d="M65.233,193.511,23.116,217.827-19,193.511V144.879l42.116-24.316,42.116,24.316Z" transform="translate(1420.276 478.276)" fill="#383838"/>
          <path id="Path_235" data-name="Path 235" d="M77.078,193.511,34.962,217.827-7.155,193.511V144.879l42.117-24.316,42.116,24.316Z" transform="translate(1492.663 478.276)" fill="#4a4a4a"/>
          <path id="Path_236" data-name="Path 236" d="M88.924,193.511,46.807,217.827,4.691,193.511V144.879l42.117-24.316,42.116,24.316Z" transform="translate(1565.051 478.276)" fill="#6b6b6b"/>
          <path id="Path_237" data-name="Path 237" d="M100.769,193.511,58.652,217.827,16.536,193.511V144.879l42.116-24.316,42.117,24.316Z" transform="translate(1637.439 478.276)" fill="#2e2e2e"/>
          <path id="Path_238" data-name="Path 238" d="M112.614,193.511,70.5,217.827,28.381,193.511V144.879L70.5,120.562l42.117,24.316Z" transform="translate(1709.827 478.276)" fill="#4a4a4a"/>
          <path id="Path_239" data-name="Path 239" d="M124.459,193.511,82.343,217.827,40.226,193.511V144.879l42.116-24.316,42.116,24.316Z" transform="translate(1782.215 478.276)" fill="#121212"/>
          <path id="Path_240" data-name="Path 240" d="M136.3,193.511,94.189,217.827,52.072,193.511V144.879l42.117-24.316L136.3,144.879Z" transform="translate(1854.602 478.276)" fill="#1a1a1a"/>
          <path id="Path_241" data-name="Path 241" d="M-142.073,162.9l-42.116,24.316L-226.306,162.9V114.265l42.117-24.316,42.116,24.316Z" transform="translate(153.408 291.192)" fill="#171717"/>
          <path id="Path_242" data-name="Path 242" d="M-130.227,162.9l-42.116,24.316L-214.46,162.9V114.265l42.117-24.316,42.116,24.316Z" transform="translate(225.796 291.192)" fill="#1a1a1a"/>
          <path id="Path_243" data-name="Path 243" d="M-118.382,162.9-160.5,187.213-202.615,162.9V114.265L-160.5,89.949l42.117,24.316Z" transform="translate(298.184 291.192)" fill="#121212"/>
          <path id="Path_244" data-name="Path 244" d="M-106.536,162.9l-42.117,24.316L-190.77,162.9V114.265l42.116-24.316,42.117,24.316Z" transform="translate(370.572 291.192)" fill="#4a4a4a"/>
          <path id="Path_245" data-name="Path 245" d="M-94.692,162.9l-42.116,24.316L-178.924,162.9V114.265l42.116-24.316,42.116,24.316Z" transform="translate(442.96 291.192)" fill="#383838"/>
          <path id="Path_246" data-name="Path 246" d="M-82.846,162.9l-42.116,24.316L-167.079,162.9V114.265l42.117-24.316,42.116,24.316Z" transform="translate(515.347 291.192)" fill="#636363"/>
          <path id="Path_247" data-name="Path 247" d="M-71,162.9l-42.116,24.316L-155.234,162.9V114.265l42.117-24.316L-71,114.265Z" transform="translate(587.735 291.192)" fill="#4a4a4a"/>
          <path id="Path_248" data-name="Path 248" d="M-59.155,162.9l-42.117,24.316L-143.389,162.9V114.265l42.116-24.316,42.117,24.316Z" transform="translate(660.123 291.192)" fill="#2b2b2b"/>
          <path id="Path_249" data-name="Path 249" d="M-47.311,162.9l-42.116,24.316L-131.543,162.9V114.265l42.116-24.316,42.116,24.316Z" transform="translate(732.511 291.192)" fill="#636363"/>
          <path id="Path_250" data-name="Path 250" d="M-35.465,162.9l-42.116,24.316L-119.7,162.9V114.265l42.117-24.316,42.116,24.316Z" transform="translate(804.898 291.192)" fill="#4a4a4a"/>
          <path id="Path_251" data-name="Path 251" d="M-23.62,162.9l-42.116,24.316L-107.853,162.9V114.265l42.117-24.316,42.116,24.316Z" transform="translate(877.286 291.192)" fill="#383838"/>
          <path id="Path_252" data-name="Path 252" d="M-11.774,162.9l-42.117,24.316L-96.008,162.9V114.265l42.116-24.316,42.117,24.316Z" transform="translate(949.674 291.192)" fill="#1a1a1a"/>
          <path id="Path_253" data-name="Path 253" d="M-136.15,173.133l-42.117,24.316-42.116-24.316V124.5l42.116-24.316L-136.15,124.5Z" transform="translate(189.603 353.745)" fill="#2b2b2b"/>
          <path id="Path_254" data-name="Path 254" d="M-124.305,173.133l-42.116,24.316-42.116-24.316V124.5l42.116-24.316,42.116,24.316Z" transform="translate(261.991 353.745)" fill="#171717"/>
          <path id="Path_255" data-name="Path 255" d="M-112.459,173.133l-42.116,24.316-42.117-24.316V124.5l42.117-24.316,42.116,24.316Z" transform="translate(334.378 353.745)" fill="#2e2e2e"/>
          <path id="Path_256" data-name="Path 256" d="M-100.614,173.133l-42.116,24.316-42.117-24.316V124.5l42.117-24.316,42.116,24.316Z" transform="translate(406.766 353.745)" fill="#6b6b6b"/>
          <path id="Path_257" data-name="Path 257" d="M-88.769,173.133l-42.117,24.316L-173,173.133V124.5l42.116-24.316L-88.769,124.5Z" transform="translate(479.154 353.745)" fill="#2b2b2b"/>
          <path id="Path_258" data-name="Path 258" d="M-76.923,173.133l-42.117,24.316-42.116-24.316V124.5l42.116-24.316L-76.923,124.5Z" transform="translate(551.542 353.745)" fill="#171717"/>
          <path id="Path_259" data-name="Path 259" d="M-65.079,173.133-107.2,197.448l-42.116-24.316V124.5l42.116-24.316L-65.079,124.5Z" transform="translate(623.93 353.745)" fill="#2e2e2e"/>
          <path id="Path_260" data-name="Path 260" d="M-53.233,173.133l-42.116,24.316-42.117-24.316V124.5l42.117-24.316L-53.233,124.5Z" transform="translate(696.317 353.745)" fill="#4a4a4a"/>
          <path id="Path_261" data-name="Path 261" d="M-41.388,173.133-83.5,197.448l-42.116-24.316V124.5L-83.5,100.185-41.388,124.5Z" transform="translate(768.705 353.745)" fill="#383838"/>
          <path id="Path_262" data-name="Path 262" d="M-29.542,173.133l-42.117,24.316-42.116-24.316V124.5l42.116-24.316L-29.542,124.5Z" transform="translate(841.093 353.745)" fill="#4a4a4a"/>
          <path id="Path_263" data-name="Path 263" d="M-17.7,173.133l-42.116,24.316-42.116-24.316V124.5l42.116-24.316L-17.7,124.5Z" transform="translate(913.481 353.745)" fill="#121212"/>
          <path id="Path_264" data-name="Path 264" d="M-5.852,173.133l-42.116,24.316-42.117-24.316V124.5l42.117-24.316L-5.852,124.5Z" transform="translate(985.868 353.745)" fill="#6b6b6b"/>
          <path id="Path_265" data-name="Path 265" d="M-142.073,142.388-184.189,166.7l-42.117-24.316V93.756l42.117-24.316,42.116,24.316Z" transform="translate(153.408 165.859)" fill="#2b2b2b"/>
          <path id="Path_266" data-name="Path 266" d="M-130.227,142.388-172.343,166.7l-42.117-24.316V93.756l42.117-24.316,42.116,24.316Z" transform="translate(225.796 165.859)" fill="#121212"/>
          <path id="Path_267" data-name="Path 267" d="M-118.382,142.388-160.5,166.7l-42.116-24.316V93.756L-160.5,69.44l42.117,24.316Z" transform="translate(298.184 165.859)" fill="#2b2b2b"/>
          <path id="Path_268" data-name="Path 268" d="M-106.536,142.388-148.653,166.7l-42.116-24.316V93.756l42.116-24.316,42.117,24.316Z" transform="translate(370.572 165.859)" fill="#4a4a4a"/>
          <path id="Path_269" data-name="Path 269" d="M-94.692,142.388-136.808,166.7l-42.116-24.316V93.756l42.116-24.316,42.116,24.316Z" transform="translate(442.96 165.859)" fill="#4a4a4a"/>
          <path id="Path_270" data-name="Path 270" d="M-82.846,142.388-124.962,166.7l-42.117-24.316V93.756l42.117-24.316,42.116,24.316Z" transform="translate(515.347 165.859)" fill="#171717"/>
          <path id="Path_271" data-name="Path 271" d="M-71,142.388-113.117,166.7l-42.117-24.316V93.756l42.117-24.316L-71,93.756Z" transform="translate(587.735 165.859)" fill="#636363"/>
          <path id="Path_272" data-name="Path 272" d="M-59.155,142.388-101.272,166.7l-42.116-24.316V93.756l42.116-24.316,42.117,24.316Z" transform="translate(660.123 165.859)" fill="#171717"/>
          <path id="Path_273" data-name="Path 273" d="M-47.311,142.388-89.427,166.7l-42.116-24.316V93.756L-89.427,69.44l42.116,24.316Z" transform="translate(732.511 165.859)" fill="#4a4a4a"/>
          <path id="Path_274" data-name="Path 274" d="M-35.465,142.388-77.581,166.7-119.7,142.388V93.756L-77.581,69.44l42.116,24.316Z" transform="translate(804.898 165.859)" fill="#383838"/>
          <path id="Path_275" data-name="Path 275" d="M-23.62,142.388-65.736,166.7l-42.117-24.316V93.756L-65.736,69.44-23.62,93.756Z" transform="translate(877.286 165.859)" fill="#2b2b2b"/>
          <path id="Path_276" data-name="Path 276" d="M-11.774,142.388-53.891,166.7l-42.116-24.316V93.756L-53.891,69.44l42.117,24.316Z" transform="translate(949.674 165.859)" fill="#6b6b6b"/>
          <path id="Path_277" data-name="Path 277" d="M-136.15,152.623l-42.117,24.316-42.116-24.316V103.992l42.116-24.316,42.117,24.316Z" transform="translate(189.603 228.411)" fill="#4a4a4a"/>
          <path id="Path_278" data-name="Path 278" d="M-124.305,152.623l-42.116,24.316-42.116-24.316V103.992l42.116-24.316,42.116,24.316Z" transform="translate(261.991 228.411)" fill="#2e2e2e"/>
          <path id="Path_279" data-name="Path 279" d="M-112.459,152.623l-42.116,24.316-42.117-24.316V103.992l42.117-24.316,42.116,24.316Z" transform="translate(334.378 228.411)" fill="#636363"/>
          <path id="Path_280" data-name="Path 280" d="M-100.614,152.623-142.73,176.94l-42.117-24.316V103.992l42.117-24.316,42.116,24.316Z" transform="translate(406.766 228.411)" fill="#6b6b6b"/>
          <path id="Path_281" data-name="Path 281" d="M-88.769,152.623l-42.117,24.316L-173,152.623V103.992l42.116-24.316,42.117,24.316Z" transform="translate(479.154 228.411)" fill="#2e2e2e"/>
          <path id="Path_282" data-name="Path 282" d="M-76.923,152.623-119.04,176.94l-42.116-24.316V103.992l42.116-24.316,42.117,24.316Z" transform="translate(551.542 228.411)" fill="#6b6b6b"/>
          <path id="Path_283" data-name="Path 283" d="M-65.079,152.623-107.2,176.94l-42.116-24.316V103.992L-107.2,79.676l42.116,24.316Z" transform="translate(623.93 228.411)" fill="#4a4a4a"/>
          <path id="Path_284" data-name="Path 284" d="M-53.233,152.623-95.349,176.94l-42.117-24.316V103.992l42.117-24.316,42.116,24.316Z" transform="translate(696.317 228.411)" fill="#4a4a4a"/>
          <path id="Path_285" data-name="Path 285" d="M-41.388,152.623-83.5,176.94l-42.116-24.316V103.992L-83.5,79.676l42.117,24.316Z" transform="translate(768.705 228.411)" fill="#4a4a4a"/>
          <path id="Path_286" data-name="Path 286" d="M-29.542,152.623-71.659,176.94l-42.116-24.316V103.992l42.116-24.316,42.117,24.316Z" transform="translate(841.093 228.411)" fill="#121212"/>
          <path id="Path_287" data-name="Path 287" d="M-17.7,152.623-59.814,176.94l-42.116-24.316V103.992l42.116-24.316L-17.7,103.992Z" transform="translate(913.481 228.411)" fill="#4a4a4a"/>
          <path id="Path_288" data-name="Path 288" d="M-5.852,152.623-47.968,176.94l-42.117-24.316V103.992l42.117-24.316,42.116,24.316Z" transform="translate(985.868 228.411)" fill="#121212"/>
          <path id="Path_289" data-name="Path 289" d="M-142.073,121.879l-42.116,24.316-42.117-24.316V73.246l42.117-24.316,42.116,24.316Z" transform="translate(153.408 40.526)" fill="#636363"/>
          <path id="Path_290" data-name="Path 290" d="M-130.227,121.879l-42.116,24.316-42.117-24.316V73.246l42.117-24.316,42.116,24.316Z" transform="translate(225.796 40.526)" fill="#171717"/>
          <path id="Path_291" data-name="Path 291" d="M-118.382,121.879-160.5,146.194l-42.116-24.316V73.246L-160.5,48.931l42.117,24.316Z" transform="translate(298.184 40.526)" fill="#4a4a4a"/>
          <path id="Path_292" data-name="Path 292" d="M-106.536,121.879l-42.117,24.316-42.116-24.316V73.246l42.116-24.316,42.117,24.316Z" transform="translate(370.572 40.526)" fill="#171717"/>
          <path id="Path_293" data-name="Path 293" d="M-94.692,121.879l-42.116,24.316-42.116-24.316V73.246l42.116-24.316,42.116,24.316Z" transform="translate(442.96 40.526)" fill="#4a4a4a"/>
          <path id="Path_294" data-name="Path 294" d="M-82.846,121.879l-42.116,24.316-42.117-24.316V73.246l42.117-24.316,42.116,24.316Z" transform="translate(515.347 40.526)" fill="#383838"/>
          <path id="Path_295" data-name="Path 295" d="M-71,121.879l-42.116,24.316-42.117-24.316V73.246l42.117-24.316L-71,73.246Z" transform="translate(587.735 40.526)" fill="#2b2b2b"/>
          <path id="Path_296" data-name="Path 296" d="M-59.155,121.879l-42.117,24.316-42.116-24.316V73.246l42.116-24.316,42.117,24.316Z" transform="translate(660.123 40.526)" fill="#4a4a4a"/>
          <path id="Path_297" data-name="Path 297" d="M-47.311,121.879l-42.116,24.316-42.116-24.316V73.246l42.116-24.316,42.116,24.316Z" transform="translate(732.511 40.526)" fill="#171717"/>
          <path id="Path_298" data-name="Path 298" d="M-35.465,121.879l-42.116,24.316L-119.7,121.879V73.246l42.117-24.316,42.116,24.316Z" transform="translate(804.898 40.526)" fill="#4a4a4a"/>
          <path id="Path_299" data-name="Path 299" d="M-23.62,121.879l-42.116,24.316-42.117-24.316V73.246l42.117-24.316L-23.62,73.246Z" transform="translate(877.286 40.526)" fill="#6b6b6b"/>
          <path id="Path_300" data-name="Path 300" d="M-11.774,121.879l-42.117,24.316-42.116-24.316V73.246l42.116-24.316,42.117,24.316Z" transform="translate(949.674 40.526)" fill="#1a1a1a"/>
          <path id="Path_301" data-name="Path 301" d="M-136.15,132.114l-42.117,24.316-42.116-24.316V83.482l42.116-24.316,42.117,24.316Z" transform="translate(189.603 103.078)" fill="#4a4a4a"/>
          <path id="Path_302" data-name="Path 302" d="M-124.305,132.114l-42.116,24.316-42.116-24.316V83.482l42.116-24.316,42.116,24.316Z" transform="translate(261.991 103.078)" fill="#383838"/>
          <path id="Path_303" data-name="Path 303" d="M-112.459,132.114l-42.116,24.316-42.117-24.316V83.482l42.117-24.316,42.116,24.316Z" transform="translate(334.378 103.078)" fill="#1a1a1a"/>
          <path id="Path_304" data-name="Path 304" d="M-100.614,132.114-142.73,156.43l-42.117-24.316V83.482l42.117-24.316,42.116,24.316Z" transform="translate(406.766 103.078)" fill="#171717"/>
          <path id="Path_305" data-name="Path 305" d="M-88.769,132.114l-42.117,24.316L-173,132.114V83.482l42.116-24.316,42.117,24.316Z" transform="translate(479.154 103.078)" fill="#4a4a4a"/>
          <path id="Path_306" data-name="Path 306" d="M-76.923,132.114-119.04,156.43l-42.116-24.316V83.482l42.116-24.316,42.117,24.316Z" transform="translate(551.542 103.078)" fill="#121212"/>
          <path id="Path_307" data-name="Path 307" d="M-65.079,132.114-107.2,156.43l-42.116-24.316V83.482L-107.2,59.167l42.116,24.316Z" transform="translate(623.93 103.078)" fill="#6b6b6b"/>
          <path id="Path_308" data-name="Path 308" d="M-53.233,132.114-95.349,156.43l-42.117-24.316V83.482l42.117-24.316,42.116,24.316Z" transform="translate(696.317 103.078)" fill="#2b2b2b"/>
          <path id="Path_309" data-name="Path 309" d="M-41.388,132.114-83.5,156.43l-42.116-24.316V83.482L-83.5,59.167l42.117,24.316Z" transform="translate(768.705 103.078)" fill="#1a1a1a"/>
          <path id="Path_310" data-name="Path 310" d="M-29.542,132.114-71.659,156.43l-42.116-24.316V83.482l42.116-24.316,42.117,24.316Z" transform="translate(841.093 103.078)" fill="#2e2e2e"/>
          <path id="Path_311" data-name="Path 311" d="M-17.7,132.114-59.814,156.43l-42.116-24.316V83.482l42.116-24.316L-17.7,83.482Z" transform="translate(913.481 103.078)" fill="#4a4a4a"/>
          <path id="Path_312" data-name="Path 312" d="M-5.852,132.114-47.968,156.43l-42.117-24.316V83.482l42.117-24.316L-5.852,83.482Z" transform="translate(985.868 103.078)" fill="#171717"/>
          <path id="Path_313" data-name="Path 313" d="M-142.073,101.37l-42.116,24.316-42.117-24.316V52.737l42.117-24.316,42.116,24.316Z" transform="translate(153.408 -84.807)" fill="#171717"/>
          <path id="Path_314" data-name="Path 314" d="M-130.227,101.37l-42.116,24.316L-214.46,101.37V52.737l42.117-24.316,42.116,24.316Z" transform="translate(225.796 -84.807)" fill="#121212"/>
          <path id="Path_315" data-name="Path 315" d="M-118.382,101.37-160.5,125.685l-42.116-24.316V52.737L-160.5,28.422l42.117,24.316Z" transform="translate(298.184 -84.807)" fill="#2b2b2b"/>
          <path id="Path_316" data-name="Path 316" d="M-106.536,101.37l-42.117,24.316L-190.77,101.37V52.737l42.116-24.316,42.117,24.316Z" transform="translate(370.572 -84.807)" fill="#4a4a4a"/>
          <path id="Path_317" data-name="Path 317" d="M-94.692,101.37l-42.116,24.316-42.116-24.316V52.737l42.116-24.316,42.116,24.316Z" transform="translate(442.96 -84.807)" fill="#4a4a4a"/>
          <path id="Path_318" data-name="Path 318" d="M-82.846,101.37l-42.116,24.316-42.117-24.316V52.737l42.117-24.316,42.116,24.316Z" transform="translate(515.347 -84.807)" fill="#2b2b2b"/>
          <path id="Path_319" data-name="Path 319" d="M-71,101.37l-42.116,24.316-42.117-24.316V52.737l42.117-24.316L-71,52.737Z" transform="translate(587.735 -84.807)" fill="#121212"/>
          <path id="Path_320" data-name="Path 320" d="M-59.155,101.37l-42.117,24.316-42.116-24.316V52.737l42.116-24.316,42.117,24.316Z" transform="translate(660.123 -84.807)" fill="#171717"/>
          <path id="Path_321" data-name="Path 321" d="M-47.311,101.37l-42.116,24.316-42.116-24.316V52.737l42.116-24.316,42.116,24.316Z" transform="translate(732.511 -84.807)" fill="#4a4a4a"/>
          <path id="Path_322" data-name="Path 322" d="M-35.465,101.37l-42.116,24.316L-119.7,101.37V52.737l42.117-24.316,42.116,24.316Z" transform="translate(804.898 -84.807)" fill="#1a1a1a"/>
          <path id="Path_323" data-name="Path 323" d="M-23.62,101.37l-42.116,24.316-42.117-24.316V52.737l42.117-24.316L-23.62,52.737Z" transform="translate(877.286 -84.807)" fill="#4a4a4a"/>
          <path id="Path_324" data-name="Path 324" d="M-11.774,101.37l-42.117,24.316L-96.008,101.37V52.737l42.116-24.316,42.117,24.316Z" transform="translate(949.674 -84.807)" fill="#171717"/>
          <path id="Path_325" data-name="Path 325" d="M-136.15,111.605l-42.117,24.316-42.116-24.316V62.973l42.116-24.316,42.117,24.316Z" transform="translate(189.603 -22.255)" fill="#4a4a4a"/>
          <path id="Path_326" data-name="Path 326" d="M-124.305,111.605l-42.116,24.316-42.116-24.316V62.973l42.116-24.316,42.116,24.316Z" transform="translate(261.991 -22.255)" fill="#4a4a4a"/>
          <path id="Path_327" data-name="Path 327" d="M-112.459,111.605l-42.116,24.316-42.117-24.316V62.973l42.117-24.316,42.116,24.316Z" transform="translate(334.378 -22.255)" fill="#1a1a1a"/>
          <path id="Path_328" data-name="Path 328" d="M-100.614,111.605l-42.116,24.316-42.117-24.316V62.973l42.117-24.316,42.116,24.316Z" transform="translate(406.766 -22.255)" fill="#2e2e2e"/>
          <path id="Path_329" data-name="Path 329" d="M-88.769,111.605l-42.117,24.316L-173,111.605V62.973l42.116-24.316,42.117,24.316Z" transform="translate(479.154 -22.255)" fill="#636363"/>
          <path id="Path_330" data-name="Path 330" d="M-76.923,111.605l-42.117,24.316-42.116-24.316V62.973l42.116-24.316,42.117,24.316Z" transform="translate(551.542 -22.255)" fill="#4a4a4a"/>
          <path id="Path_331" data-name="Path 331" d="M-65.079,111.605-107.2,135.921l-42.116-24.316V62.973L-107.2,38.657l42.116,24.316Z" transform="translate(623.93 -22.255)" fill="#2e2e2e"/>
          <path id="Path_332" data-name="Path 332" d="M-53.233,111.605l-42.116,24.316-42.117-24.316V62.973l42.117-24.316,42.116,24.316Z" transform="translate(696.317 -22.255)" fill="#4a4a4a"/>
          <path id="Path_333" data-name="Path 333" d="M-41.388,111.605-83.5,135.921l-42.116-24.316V62.973L-83.5,38.657l42.117,24.316Z" transform="translate(768.705 -22.255)" fill="#121212"/>
          <path id="Path_334" data-name="Path 334" d="M-29.542,111.605l-42.117,24.316-42.116-24.316V62.973l42.116-24.316,42.117,24.316Z" transform="translate(841.093 -22.255)" fill="#2b2b2b"/>
          <path id="Path_335" data-name="Path 335" d="M-17.7,111.605l-42.116,24.316-42.116-24.316V62.973l42.116-24.316L-17.7,62.973Z" transform="translate(913.481 -22.255)" fill="#2e2e2e"/>
          <path id="Path_336" data-name="Path 336" d="M-5.852,111.605l-42.116,24.316-42.117-24.316V62.973l42.117-24.316L-5.852,62.973Z" transform="translate(985.868 -22.255)" fill="#4a4a4a"/>
          <path id="Path_337" data-name="Path 337" d="M-142.073,80.86l-42.116,24.316L-226.306,80.86V32.229l42.117-24.316,42.116,24.316Z" transform="translate(153.408 -210.14)" fill="#121212"/>
          <path id="Path_338" data-name="Path 338" d="M-130.227,80.86l-42.116,24.316L-214.46,80.86V32.229l42.117-24.316,42.116,24.316Z" transform="translate(225.796 -210.14)" fill="#2b2b2b"/>
          <path id="Path_339" data-name="Path 339" d="M-118.382,80.86-160.5,105.177-202.615,80.86V32.229L-160.5,7.913l42.117,24.316Z" transform="translate(298.184 -210.14)" fill="#636363"/>
          <path id="Path_340" data-name="Path 340" d="M-106.536,80.86l-42.117,24.316L-190.77,80.86V32.229l42.116-24.316,42.117,24.316Z" transform="translate(370.572 -210.14)" fill="#4a4a4a"/>
          <path id="Path_341" data-name="Path 341" d="M-94.692,80.86l-42.116,24.316L-178.924,80.86V32.229l42.116-24.316,42.116,24.316Z" transform="translate(442.96 -210.14)" fill="#171717"/>
          <path id="Path_342" data-name="Path 342" d="M-82.846,80.86l-42.116,24.316L-167.079,80.86V32.229l42.117-24.316,42.116,24.316Z" transform="translate(515.347 -210.14)" fill="#2b2b2b"/>
          <path id="Path_343" data-name="Path 343" d="M-71,80.86l-42.116,24.316L-155.234,80.86V32.229l42.117-24.316L-71,32.229Z" transform="translate(587.735 -210.14)" fill="#4a4a4a"/>
          <path id="Path_344" data-name="Path 344" d="M-59.155,80.86l-42.117,24.316L-143.389,80.86V32.229l42.116-24.316,42.117,24.316Z" transform="translate(660.123 -210.14)" fill="#121212"/>
          <path id="Path_345" data-name="Path 345" d="M-47.311,80.86l-42.116,24.316L-131.543,80.86V32.229L-89.427,7.913l42.116,24.316Z" transform="translate(732.511 -210.14)" fill="#2b2b2b"/>
          <path id="Path_346" data-name="Path 346" d="M-35.465,80.86l-42.116,24.316L-119.7,80.86V32.229L-77.581,7.913l42.116,24.316Z" transform="translate(804.898 -210.14)" fill="#1a1a1a"/>
          <path id="Path_347" data-name="Path 347" d="M-23.62,80.86l-42.116,24.316L-107.853,80.86V32.229L-65.736,7.913-23.62,32.229Z" transform="translate(877.286 -210.14)" fill="#171717"/>
          <path id="Path_348" data-name="Path 348" d="M-11.774,80.86l-42.117,24.316L-96.008,80.86V32.229L-53.891,7.913l42.117,24.316Z" transform="translate(949.674 -210.14)" fill="#4a4a4a"/>
          <path id="Path_349" data-name="Path 349" d="M-136.15,91.1l-42.117,24.316L-220.383,91.1V42.465l42.116-24.316,42.117,24.316Z" transform="translate(189.603 -147.588)" fill="#636363"/>
          <path id="Path_350" data-name="Path 350" d="M-124.305,91.1l-42.116,24.316L-208.538,91.1V42.465l42.116-24.316,42.116,24.316Z" transform="translate(261.991 -147.588)" fill="#2e2e2e"/>
          <path id="Path_351" data-name="Path 351" d="M-112.459,91.1l-42.116,24.316L-196.693,91.1V42.465l42.117-24.316,42.116,24.316Z" transform="translate(334.378 -147.588)" fill="#383838"/>
          <path id="Path_352" data-name="Path 352" d="M-100.614,91.1l-42.116,24.316L-184.847,91.1V42.465l42.117-24.316,42.116,24.316Z" transform="translate(406.766 -147.588)" fill="#6b6b6b"/>
          <path id="Path_353" data-name="Path 353" d="M-88.769,91.1l-42.117,24.316L-173,91.1V42.465l42.116-24.316,42.117,24.316Z" transform="translate(479.154 -147.588)" fill="#636363"/>
          <path id="Path_354" data-name="Path 354" d="M-76.923,91.1l-42.117,24.316L-161.156,91.1V42.465l42.116-24.316,42.117,24.316Z" transform="translate(551.542 -147.588)" fill="#383838"/>
          <path id="Path_355" data-name="Path 355" d="M-65.079,91.1-107.2,115.413-149.311,91.1V42.465L-107.2,18.148l42.116,24.316Z" transform="translate(623.93 -147.588)" fill="#4a4a4a"/>
          <path id="Path_356" data-name="Path 356" d="M-53.233,91.1l-42.116,24.316L-137.466,91.1V42.465l42.117-24.316,42.116,24.316Z" transform="translate(696.317 -147.588)" fill="#6b6b6b"/>
          <path id="Path_357" data-name="Path 357" d="M-41.388,91.1-83.5,115.413-125.621,91.1V42.465L-83.5,18.148l42.117,24.316Z" transform="translate(768.705 -147.588)" fill="#2e2e2e"/>
          <path id="Path_358" data-name="Path 358" d="M-29.542,91.1l-42.117,24.316L-113.775,91.1V42.465l42.116-24.316,42.117,24.316Z" transform="translate(841.093 -147.588)" fill="#4a4a4a"/>
          <path id="Path_359" data-name="Path 359" d="M-17.7,91.1l-42.116,24.316L-101.93,91.1V42.465l42.116-24.316L-17.7,42.465Z" transform="translate(913.481 -147.588)" fill="#121212"/>
          <path id="Path_360" data-name="Path 360" d="M-5.852,91.1l-42.116,24.316L-90.085,91.1V42.465l42.117-24.316L-5.852,42.465Z" transform="translate(985.868 -147.588)" fill="#1a1a1a"/>
          <path id="Path_361" data-name="Path 361" d="M.084,162.9l-42.116,24.316L-84.149,162.9V114.265l42.117-24.316L.084,114.265Z" transform="translate(1022.142 291.192)" fill="#171717"/>
          <path id="Path_362" data-name="Path 362" d="M11.929,162.9l-42.116,24.316L-72.3,162.9V114.265l42.117-24.316,42.116,24.316Z" transform="translate(1094.53 291.192)" fill="#1a1a1a"/>
          <path id="Path_363" data-name="Path 363" d="M23.775,162.9l-42.117,24.316L-60.459,162.9V114.265l42.116-24.316,42.117,24.316Z" transform="translate(1166.918 291.192)" fill="#121212"/>
          <path id="Path_364" data-name="Path 364" d="M35.62,162.9-6.5,187.213-48.613,162.9V114.265L-6.5,89.949,35.62,114.265Z" transform="translate(1239.306 291.192)" fill="#4a4a4a"/>
          <path id="Path_365" data-name="Path 365" d="M47.465,162.9,5.348,187.213-36.768,162.9V114.265L5.348,89.949l42.116,24.316Z" transform="translate(1311.694 291.192)" fill="#383838"/>
          <path id="Path_366" data-name="Path 366" d="M59.311,162.9,17.194,187.213-24.923,162.9V114.265L17.194,89.949l42.116,24.316Z" transform="translate(1384.081 291.192)" fill="#636363"/>
          <path id="Path_367" data-name="Path 367" d="M71.156,162.9,29.039,187.213-13.077,162.9V114.265L29.039,89.949l42.117,24.316Z" transform="translate(1456.469 291.192)" fill="#4a4a4a"/>
          <path id="Path_368" data-name="Path 368" d="M83,162.9,40.884,187.213-1.232,162.9V114.265L40.884,89.949,83,114.265Z" transform="translate(1528.857 291.192)" fill="#2b2b2b"/>
          <path id="Path_369" data-name="Path 369" d="M94.846,162.9,52.73,187.213,10.613,162.9V114.265L52.73,89.949l42.116,24.316Z" transform="translate(1601.245 291.192)" fill="#636363"/>
          <path id="Path_370" data-name="Path 370" d="M106.692,162.9,64.575,187.213,22.458,162.9V114.265L64.575,89.949l42.116,24.316Z" transform="translate(1673.633 291.192)" fill="#4a4a4a"/>
          <path id="Path_371" data-name="Path 371" d="M118.537,162.9,76.421,187.213,34.3,162.9V114.265L76.421,89.949l42.116,24.316Z" transform="translate(1746.021 291.192)" fill="#383838"/>
          <path id="Path_372" data-name="Path 372" d="M130.382,162.9,88.265,187.213,46.149,162.9V114.265L88.265,89.949l42.117,24.316Z" transform="translate(1818.408 291.192)" fill="#1a1a1a"/>
          <path id="Path_373" data-name="Path 373" d="M6.007,173.133-36.11,197.448l-42.116-24.316V124.5l42.116-24.316L6.007,124.5Z" transform="translate(1058.337 353.745)" fill="#2b2b2b"/>
          <path id="Path_374" data-name="Path 374" d="M17.851,173.133l-42.116,24.316-42.116-24.316V124.5l42.116-24.316L17.851,124.5Z" transform="translate(1130.725 353.745)" fill="#171717"/>
          <path id="Path_375" data-name="Path 375" d="M29.7,173.133l-42.116,24.316-42.117-24.316V124.5l42.117-24.316L29.7,124.5Z" transform="translate(1203.112 353.745)" fill="#2e2e2e"/>
          <path id="Path_376" data-name="Path 376" d="M41.543,173.133-.574,197.448l-42.117-24.316V124.5L-.574,100.185,41.543,124.5Z" transform="translate(1275.5 353.745)" fill="#6b6b6b"/>
          <path id="Path_377" data-name="Path 377" d="M53.388,173.133,11.271,197.448l-42.116-24.316V124.5l42.116-24.316L53.388,124.5Z" transform="translate(1347.888 353.745)" fill="#2b2b2b"/>
          <path id="Path_378" data-name="Path 378" d="M65.233,173.133,23.116,197.448-19,173.133V124.5l42.116-24.316L65.233,124.5Z" transform="translate(1420.276 353.745)" fill="#171717"/>
          <path id="Path_379" data-name="Path 379" d="M77.078,173.133,34.962,197.448-7.155,173.133V124.5l42.117-24.316L77.078,124.5Z" transform="translate(1492.663 353.745)" fill="#2e2e2e"/>
          <path id="Path_380" data-name="Path 380" d="M88.924,173.133,46.807,197.448,4.691,173.133V124.5l42.117-24.316L88.924,124.5Z" transform="translate(1565.051 353.745)" fill="#4a4a4a"/>
          <path id="Path_381" data-name="Path 381" d="M100.769,173.133,58.652,197.448,16.536,173.133V124.5l42.116-24.316L100.769,124.5Z" transform="translate(1637.439 353.745)" fill="#383838"/>
          <path id="Path_382" data-name="Path 382" d="M112.614,173.133,70.5,197.448,28.381,173.133V124.5L70.5,100.185,112.614,124.5Z" transform="translate(1709.827 353.745)" fill="#4a4a4a"/>
          <path id="Path_383" data-name="Path 383" d="M124.459,173.133,82.343,197.448,40.226,173.133V124.5l42.116-24.316L124.459,124.5Z" transform="translate(1782.215 353.745)" fill="#121212"/>
          <path id="Path_384" data-name="Path 384" d="M136.3,173.133,94.189,197.448,52.072,173.133V124.5l42.117-24.316L136.3,124.5Z" transform="translate(1854.602 353.745)" fill="#6b6b6b"/>
          <path id="Path_385" data-name="Path 385" d="M.084,142.388-42.032,166.7l-42.117-24.316V93.756L-42.032,69.44.084,93.756Z" transform="translate(1022.142 165.859)" fill="#2b2b2b"/>
          <path id="Path_386" data-name="Path 386" d="M11.929,142.388-30.187,166.7-72.3,142.388V93.756L-30.187,69.44,11.929,93.756Z" transform="translate(1094.53 165.859)" fill="#121212"/>
          <path id="Path_387" data-name="Path 387" d="M23.775,142.388-18.342,166.7l-42.116-24.316V93.756L-18.342,69.44,23.775,93.756Z" transform="translate(1166.918 165.859)" fill="#2b2b2b"/>
          <path id="Path_388" data-name="Path 388" d="M35.62,142.388-6.5,166.7l-42.116-24.316V93.756L-6.5,69.44,35.62,93.756Z" transform="translate(1239.306 165.859)" fill="#4a4a4a"/>
          <path id="Path_389" data-name="Path 389" d="M47.465,142.388,5.348,166.7l-42.116-24.316V93.756L5.348,69.44,47.465,93.756Z" transform="translate(1311.694 165.859)" fill="#4a4a4a"/>
          <path id="Path_390" data-name="Path 390" d="M59.311,142.388,17.194,166.7l-42.117-24.316V93.756L17.194,69.44,59.311,93.756Z" transform="translate(1384.081 165.859)" fill="#171717"/>
          <path id="Path_391" data-name="Path 391" d="M71.156,142.388,29.039,166.7l-42.116-24.316V93.756L29.039,69.44,71.156,93.756Z" transform="translate(1456.469 165.859)" fill="#636363"/>
          <path id="Path_392" data-name="Path 392" d="M83,142.388,40.884,166.7-1.232,142.388V93.756L40.884,69.44,83,93.756Z" transform="translate(1528.857 165.859)" fill="#171717"/>
          <path id="Path_393" data-name="Path 393" d="M94.846,142.388,52.73,166.7,10.613,142.388V93.756L52.73,69.44,94.846,93.756Z" transform="translate(1601.245 165.859)" fill="#4a4a4a"/>
          <path id="Path_394" data-name="Path 394" d="M106.692,142.388,64.575,166.7,22.458,142.388V93.756L64.575,69.44l42.116,24.316Z" transform="translate(1673.633 165.859)" fill="#383838"/>
          <path id="Path_395" data-name="Path 395" d="M118.537,142.388,76.421,166.7,34.3,142.388V93.756L76.421,69.44l42.116,24.316Z" transform="translate(1746.021 165.859)" fill="#2b2b2b"/>
          <path id="Path_396" data-name="Path 396" d="M130.382,142.388,88.265,166.7,46.149,142.388V93.756L88.265,69.44l42.117,24.316Z" transform="translate(1818.408 165.859)" fill="#6b6b6b"/>
          <path id="Path_397" data-name="Path 397" d="M6.007,152.623-36.11,176.94l-42.116-24.316V103.992L-36.11,79.676,6.007,103.992Z" transform="translate(1058.337 228.411)" fill="#4a4a4a"/>
          <path id="Path_398" data-name="Path 398" d="M17.851,152.623-24.265,176.94l-42.116-24.316V103.992l42.116-24.316,42.116,24.316Z" transform="translate(1130.725 228.411)" fill="#2e2e2e"/>
          <path id="Path_399" data-name="Path 399" d="M29.7,152.623-12.419,176.94l-42.117-24.316V103.992l42.117-24.316L29.7,103.992Z" transform="translate(1203.112 228.411)" fill="#636363"/>
          <path id="Path_400" data-name="Path 400" d="M41.543,152.623-.574,176.94l-42.117-24.316V103.992L-.574,79.676l42.116,24.316Z" transform="translate(1275.5 228.411)" fill="#6b6b6b"/>
          <path id="Path_401" data-name="Path 401" d="M53.388,152.623,11.271,176.94l-42.116-24.316V103.992L11.271,79.676l42.117,24.316Z" transform="translate(1347.888 228.411)" fill="#2e2e2e"/>
          <path id="Path_402" data-name="Path 402" d="M65.233,152.623,23.116,176.94-19,152.623V103.992L23.116,79.676l42.116,24.316Z" transform="translate(1420.276 228.411)" fill="#6b6b6b"/>
          <path id="Path_403" data-name="Path 403" d="M77.078,152.623,34.962,176.94-7.155,152.623V103.992L34.962,79.676l42.116,24.316Z" transform="translate(1492.663 228.411)" fill="#4a4a4a"/>
          <path id="Path_404" data-name="Path 404" d="M88.924,152.623,46.807,176.94,4.691,152.623V103.992L46.807,79.676l42.116,24.316Z" transform="translate(1565.051 228.411)" fill="#4a4a4a"/>
          <path id="Path_405" data-name="Path 405" d="M100.769,152.623,58.652,176.94,16.536,152.623V103.992L58.652,79.676l42.117,24.316Z" transform="translate(1637.439 228.411)" fill="#4a4a4a"/>
          <path id="Path_406" data-name="Path 406" d="M112.614,152.623,70.5,176.94,28.381,152.623V103.992L70.5,79.676l42.117,24.316Z" transform="translate(1709.827 228.411)" fill="#121212"/>
          <path id="Path_407" data-name="Path 407" d="M124.459,152.623,82.343,176.94,40.226,152.623V103.992L82.343,79.676l42.116,24.316Z" transform="translate(1782.215 228.411)" fill="#4a4a4a"/>
          <path id="Path_408" data-name="Path 408" d="M136.3,152.623,94.189,176.94,52.072,152.623V103.992L94.189,79.676,136.3,103.992Z" transform="translate(1854.602 228.411)" fill="#121212"/>
          <path id="Path_409" data-name="Path 409" d="M.084,121.879l-42.116,24.316-42.117-24.316V73.246l42.117-24.316L.084,73.246Z" transform="translate(1022.142 40.526)" fill="#636363"/>
          <path id="Path_410" data-name="Path 410" d="M11.929,121.879l-42.116,24.316L-72.3,121.879V73.246l42.117-24.316L11.929,73.246Z" transform="translate(1094.53 40.526)" fill="#171717"/>
          <path id="Path_411" data-name="Path 411" d="M23.775,121.879l-42.117,24.316-42.116-24.316V73.246l42.116-24.316L23.775,73.246Z" transform="translate(1166.918 40.526)" fill="#4a4a4a"/>
          <path id="Path_412" data-name="Path 412" d="M35.62,121.879-6.5,146.194l-42.116-24.316V73.246L-6.5,48.931,35.62,73.246Z" transform="translate(1239.306 40.526)" fill="#171717"/>
          <path id="Path_413" data-name="Path 413" d="M47.465,121.879,5.348,146.194l-42.116-24.316V73.246L5.348,48.931,47.465,73.246Z" transform="translate(1311.694 40.526)" fill="#4a4a4a"/>
          <path id="Path_414" data-name="Path 414" d="M59.311,121.879,17.194,146.194l-42.117-24.316V73.246L17.194,48.931,59.311,73.246Z" transform="translate(1384.081 40.526)" fill="#383838"/>
          <path id="Path_415" data-name="Path 415" d="M71.156,121.879,29.039,146.194l-42.116-24.316V73.246L29.039,48.931,71.156,73.246Z" transform="translate(1456.469 40.526)" fill="#2b2b2b"/>
          <path id="Path_416" data-name="Path 416" d="M83,121.879,40.884,146.194-1.232,121.879V73.246L40.884,48.931,83,73.246Z" transform="translate(1528.857 40.526)" fill="#4a4a4a"/>
          <path id="Path_417" data-name="Path 417" d="M94.846,121.879,52.73,146.194,10.613,121.879V73.246L52.73,48.931,94.846,73.246Z" transform="translate(1601.245 40.526)" fill="#171717"/>
          <path id="Path_418" data-name="Path 418" d="M106.692,121.879,64.575,146.194,22.458,121.879V73.246L64.575,48.931l42.116,24.316Z" transform="translate(1673.633 40.526)" fill="#4a4a4a"/>
          <path id="Path_419" data-name="Path 419" d="M118.537,121.879,76.421,146.194,34.3,121.879V73.246L76.421,48.931l42.116,24.316Z" transform="translate(1746.021 40.526)" fill="#6b6b6b"/>
          <path id="Path_420" data-name="Path 420" d="M130.382,121.879,88.265,146.194,46.149,121.879V73.246L88.265,48.931l42.117,24.316Z" transform="translate(1818.408 40.526)" fill="#1a1a1a"/>
          <path id="Path_421" data-name="Path 421" d="M6.007,132.114-36.11,156.43l-42.116-24.316V83.482L-36.11,59.167,6.007,83.482Z" transform="translate(1058.337 103.078)" fill="#4a4a4a"/>
          <path id="Path_422" data-name="Path 422" d="M17.851,132.114-24.265,156.43l-42.116-24.316V83.482l42.116-24.316L17.851,83.482Z" transform="translate(1130.725 103.078)" fill="#383838"/>
          <path id="Path_423" data-name="Path 423" d="M29.7,132.114-12.419,156.43l-42.117-24.316V83.482l42.117-24.316L29.7,83.482Z" transform="translate(1203.112 103.078)" fill="#1a1a1a"/>
          <path id="Path_424" data-name="Path 424" d="M41.543,132.114-.574,156.43l-42.117-24.316V83.482L-.574,59.167,41.543,83.482Z" transform="translate(1275.5 103.078)" fill="#171717"/>
          <path id="Path_425" data-name="Path 425" d="M53.388,132.114,11.271,156.43l-42.116-24.316V83.482L11.271,59.167,53.388,83.482Z" transform="translate(1347.888 103.078)" fill="#4a4a4a"/>
          <path id="Path_426" data-name="Path 426" d="M65.233,132.114,23.116,156.43-19,132.114V83.482L23.116,59.167,65.233,83.482Z" transform="translate(1420.276 103.078)" fill="#121212"/>
          <path id="Path_427" data-name="Path 427" d="M77.078,132.114,34.962,156.43-7.155,132.114V83.482L34.962,59.167,77.078,83.482Z" transform="translate(1492.663 103.078)" fill="#6b6b6b"/>
          <path id="Path_428" data-name="Path 428" d="M88.924,132.114,46.807,156.43,4.691,132.114V83.482L46.807,59.167,88.924,83.482Z" transform="translate(1565.051 103.078)" fill="#2b2b2b"/>
          <path id="Path_429" data-name="Path 429" d="M100.769,132.114,58.652,156.43,16.536,132.114V83.482L58.652,59.167l42.117,24.316Z" transform="translate(1637.439 103.078)" fill="#1a1a1a"/>
          <path id="Path_430" data-name="Path 430" d="M112.614,132.114,70.5,156.43,28.381,132.114V83.482L70.5,59.167l42.117,24.316Z" transform="translate(1709.827 103.078)" fill="#2e2e2e"/>
          <path id="Path_431" data-name="Path 431" d="M124.459,132.114,82.343,156.43,40.226,132.114V83.482L82.343,59.167l42.116,24.316Z" transform="translate(1782.215 103.078)" fill="#4a4a4a"/>
          <path id="Path_432" data-name="Path 432" d="M136.3,132.114,94.189,156.43,52.072,132.114V83.482L94.189,59.167,136.3,83.482Z" transform="translate(1854.602 103.078)" fill="#171717"/>
          <path id="Path_433" data-name="Path 433" d="M.084,101.37l-42.116,24.316L-84.149,101.37V52.737l42.117-24.316L.084,52.737Z" transform="translate(1022.142 -84.807)" fill="#171717"/>
          <path id="Path_434" data-name="Path 434" d="M11.929,101.37l-42.116,24.316L-72.3,101.37V52.737l42.117-24.316L11.929,52.737Z" transform="translate(1094.53 -84.807)" fill="#121212"/>
          <path id="Path_435" data-name="Path 435" d="M23.775,101.37l-42.117,24.316L-60.459,101.37V52.737l42.116-24.316L23.775,52.737Z" transform="translate(1166.918 -84.807)" fill="#2b2b2b"/>
          <path id="Path_436" data-name="Path 436" d="M35.62,101.37-6.5,125.685-48.613,101.37V52.737L-6.5,28.422,35.62,52.737Z" transform="translate(1239.306 -84.807)" fill="#4a4a4a"/>
          <path id="Path_437" data-name="Path 437" d="M47.465,101.37,5.348,125.685-36.768,101.37V52.737L5.348,28.422,47.465,52.737Z" transform="translate(1311.694 -84.807)" fill="#4a4a4a"/>
          <path id="Path_438" data-name="Path 438" d="M59.311,101.37,17.194,125.685-24.923,101.37V52.737L17.194,28.422,59.311,52.737Z" transform="translate(1384.081 -84.807)" fill="#2b2b2b"/>
          <path id="Path_439" data-name="Path 439" d="M71.156,101.37,29.039,125.685-13.077,101.37V52.737L29.039,28.422,71.156,52.737Z" transform="translate(1456.469 -84.807)" fill="#121212"/>
          <path id="Path_440" data-name="Path 440" d="M83,101.37,40.884,125.685-1.232,101.37V52.737L40.884,28.422,83,52.737Z" transform="translate(1528.857 -84.807)" fill="#171717"/>
          <path id="Path_441" data-name="Path 441" d="M94.846,101.37,52.73,125.685,10.613,101.37V52.737L52.73,28.422,94.846,52.737Z" transform="translate(1601.245 -84.807)" fill="#4a4a4a"/>
          <path id="Path_442" data-name="Path 442" d="M106.692,101.37,64.575,125.685,22.458,101.37V52.737L64.575,28.422l42.116,24.316Z" transform="translate(1673.633 -84.807)" fill="#1a1a1a"/>
          <path id="Path_443" data-name="Path 443" d="M118.537,101.37,76.421,125.685,34.3,101.37V52.737L76.421,28.422l42.116,24.316Z" transform="translate(1746.021 -84.807)" fill="#4a4a4a"/>
          <path id="Path_444" data-name="Path 444" d="M130.382,101.37,88.265,125.685,46.149,101.37V52.737L88.265,28.422l42.117,24.316Z" transform="translate(1818.408 -84.807)" fill="#171717"/>
          <path id="Path_445" data-name="Path 445" d="M6.007,111.605-36.11,135.921l-42.116-24.316V62.973L-36.11,38.657,6.007,62.973Z" transform="translate(1058.337 -22.255)" fill="#4a4a4a"/>
          <path id="Path_446" data-name="Path 446" d="M17.851,111.605l-42.116,24.316-42.116-24.316V62.973l42.116-24.316L17.851,62.973Z" transform="translate(1130.725 -22.255)" fill="#4a4a4a"/>
          <path id="Path_447" data-name="Path 447" d="M29.7,111.605l-42.116,24.316-42.117-24.316V62.973l42.117-24.316L29.7,62.973Z" transform="translate(1203.112 -22.255)" fill="#1a1a1a"/>
          <path id="Path_448" data-name="Path 448" d="M41.543,111.605-.574,135.921l-42.117-24.316V62.973L-.574,38.657,41.543,62.973Z" transform="translate(1275.5 -22.255)" fill="#2e2e2e"/>
          <path id="Path_449" data-name="Path 449" d="M53.388,111.605,11.271,135.921l-42.116-24.316V62.973L11.271,38.657,53.388,62.973Z" transform="translate(1347.888 -22.255)" fill="#636363"/>
          <path id="Path_450" data-name="Path 450" d="M65.233,111.605,23.116,135.921-19,111.605V62.973L23.116,38.657,65.233,62.973Z" transform="translate(1420.276 -22.255)" fill="#4a4a4a"/>
          <path id="Path_451" data-name="Path 451" d="M77.078,111.605,34.962,135.921-7.155,111.605V62.973L34.962,38.657,77.078,62.973Z" transform="translate(1492.663 -22.255)" fill="#2e2e2e"/>
          <path id="Path_452" data-name="Path 452" d="M88.924,111.605,46.807,135.921,4.691,111.605V62.973L46.807,38.657,88.924,62.973Z" transform="translate(1565.051 -22.255)" fill="#4a4a4a"/>
          <path id="Path_453" data-name="Path 453" d="M100.769,111.605,58.652,135.921,16.536,111.605V62.973L58.652,38.657l42.117,24.316Z" transform="translate(1637.439 -22.255)" fill="#121212"/>
          <path id="Path_454" data-name="Path 454" d="M112.614,111.605,70.5,135.921,28.381,111.605V62.973L70.5,38.657l42.117,24.316Z" transform="translate(1709.827 -22.255)" fill="#2b2b2b"/>
          <path id="Path_455" data-name="Path 455" d="M124.459,111.605,82.343,135.921,40.226,111.605V62.973L82.343,38.657l42.116,24.316Z" transform="translate(1782.215 -22.255)" fill="#2e2e2e"/>
          <path id="Path_456" data-name="Path 456" d="M136.3,111.605,94.189,135.921,52.072,111.605V62.973L94.189,38.657,136.3,62.973Z" transform="translate(1854.602 -22.255)" fill="#4a4a4a"/>
          <path id="Path_457" data-name="Path 457" d="M.084,80.86l-42.116,24.316L-84.149,80.86V32.229L-42.032,7.913.084,32.229Z" transform="translate(1022.142 -210.14)" fill="#121212"/>
          <path id="Path_458" data-name="Path 458" d="M11.929,80.86l-42.116,24.316L-72.3,80.86V32.229L-30.187,7.913,11.929,32.229Z" transform="translate(1094.53 -210.14)" fill="#2b2b2b"/>
          <path id="Path_459" data-name="Path 459" d="M23.775,80.86l-42.117,24.316L-60.459,80.86V32.229L-18.342,7.913,23.775,32.229Z" transform="translate(1166.918 -210.14)" fill="#636363"/>
          <path id="Path_460" data-name="Path 460" d="M35.62,80.86-6.5,105.177-48.613,80.86V32.229L-6.5,7.913,35.62,32.229Z" transform="translate(1239.306 -210.14)" fill="#4a4a4a"/>
          <path id="Path_461" data-name="Path 461" d="M47.465,80.86,5.348,105.177-36.768,80.86V32.229L5.348,7.913,47.465,32.229Z" transform="translate(1311.694 -210.14)" fill="#171717"/>
          <path id="Path_462" data-name="Path 462" d="M59.311,80.86,17.194,105.177-24.923,80.86V32.229L17.194,7.913,59.311,32.229Z" transform="translate(1384.081 -210.14)" fill="#2b2b2b"/>
          <path id="Path_463" data-name="Path 463" d="M71.156,80.86,29.039,105.177-13.077,80.86V32.229L29.039,7.913,71.156,32.229Z" transform="translate(1456.469 -210.14)" fill="#4a4a4a"/>
          <path id="Path_464" data-name="Path 464" d="M83,80.86,40.884,105.177-1.232,80.86V32.229L40.884,7.913,83,32.229Z" transform="translate(1528.857 -210.14)" fill="#121212"/>
          <path id="Path_465" data-name="Path 465" d="M94.846,80.86,52.73,105.177,10.613,80.86V32.229L52.73,7.913,94.846,32.229Z" transform="translate(1601.245 -210.14)" fill="#2b2b2b"/>
          <path id="Path_466" data-name="Path 466" d="M106.692,80.86,64.575,105.177,22.458,80.86V32.229L64.575,7.913l42.116,24.316Z" transform="translate(1673.633 -210.14)" fill="#1a1a1a"/>
          <path id="Path_467" data-name="Path 467" d="M118.537,80.86,76.421,105.177,34.3,80.86V32.229L76.421,7.913l42.116,24.316Z" transform="translate(1746.021 -210.14)" fill="#171717"/>
          <path id="Path_468" data-name="Path 468" d="M130.382,80.86,88.265,105.177,46.149,80.86V32.229L88.265,7.913l42.117,24.316Z" transform="translate(1818.408 -210.14)" fill="#4a4a4a"/>
          <path id="Path_469" data-name="Path 469" d="M6.007,91.1-36.11,115.413-78.226,91.1V42.465L-36.11,18.148,6.007,42.465Z" transform="translate(1058.337 -147.588)" fill="#636363"/>
          <path id="Path_470" data-name="Path 470" d="M17.851,91.1l-42.116,24.316L-66.381,91.1V42.465l42.116-24.316L17.851,42.465Z" transform="translate(1130.725 -147.588)" fill="#2e2e2e"/>
          <path id="Path_471" data-name="Path 471" d="M29.7,91.1l-42.116,24.316L-54.536,91.1V42.465l42.117-24.316L29.7,42.465Z" transform="translate(1203.112 -147.588)" fill="#383838"/>
          <path id="Path_472" data-name="Path 472" d="M41.543,91.1-.574,115.413-42.691,91.1V42.465L-.574,18.148,41.543,42.465Z" transform="translate(1275.5 -147.588)" fill="#6b6b6b"/>
          <path id="Path_473" data-name="Path 473" d="M53.388,91.1,11.271,115.413-30.845,91.1V42.465L11.271,18.148,53.388,42.465Z" transform="translate(1347.888 -147.588)" fill="#636363"/>
          <path id="Path_474" data-name="Path 474" d="M65.233,91.1,23.116,115.413-19,91.1V42.465L23.116,18.148,65.233,42.465Z" transform="translate(1420.276 -147.588)" fill="#383838"/>
          <path id="Path_475" data-name="Path 475" d="M77.078,91.1,34.962,115.413-7.155,91.1V42.465L34.962,18.148,77.078,42.465Z" transform="translate(1492.663 -147.588)" fill="#4a4a4a"/>
          <path id="Path_476" data-name="Path 476" d="M88.924,91.1,46.807,115.413,4.691,91.1V42.465L46.807,18.148,88.924,42.465Z" transform="translate(1565.051 -147.588)" fill="#6b6b6b"/>
          <path id="Path_477" data-name="Path 477" d="M100.769,91.1,58.652,115.413,16.536,91.1V42.465L58.652,18.148l42.117,24.316Z" transform="translate(1637.439 -147.588)" fill="#2e2e2e"/>
          <path id="Path_478" data-name="Path 478" d="M112.614,91.1,70.5,115.413,28.381,91.1V42.465L70.5,18.148l42.117,24.316Z" transform="translate(1709.827 -147.588)" fill="#4a4a4a"/>
          <path id="Path_479" data-name="Path 479" d="M124.459,91.1,82.343,115.413,40.226,91.1V42.465L82.343,18.148l42.116,24.316Z" transform="translate(1782.215 -147.588)" fill="#121212"/>
          <path id="Path_480" data-name="Path 480" d="M136.3,91.1,94.189,115.413,52.072,91.1V42.465L94.189,18.148,136.3,42.465Z" transform="translate(1854.602 -147.588)" fill="#1a1a1a"/>
        </g>
      </g>
    </g>
  </g>
</svg>
