<svg xmlns="http://www.w3.org/2000/svg" width="95" height="110" viewBox="0 0 95 110">
  <g id="InformationSecurity" transform="translate(-1242.967 -1403)">
    <path id="Path_3641" data-name="Path 3641" d="M418.521,477.873l-47.5-27.5V395.369l47.5-27.5,47.5,27.5v55.008Zm-42.107-30.62,42.107,24.377,42.113-24.377v-48.76l-42.113-24.382-42.107,24.382Z" transform="translate(871.943 1035.127)" fill="#047ebb"/>
    <path id="Shape_294" data-name="Shape 294" d="M742.9,503.914a19.054,19.054,0,0,0-5.193-13.044" transform="translate(561.819 948.651)" fill="none" stroke="#1791cc" stroke-linecap="round" stroke-linejoin="round" stroke-width="2"/>
    <path id="Shape_295" data-name="Shape 295" d="M722,498.55v6.522a19.568,19.568,0,0,0,12.455,18.03" transform="translate(541.958 958.363)" fill="none" stroke="#1791cc" stroke-linecap="round" stroke-linejoin="round" stroke-width="2"/>
    <path id="Shape_296" data-name="Shape 296" d="M752.553,490.612a21.127,21.127,0,0,0-19.887-.267,19.519,19.519,0,0,0-10.652,16.123" transform="translate(541.976 945.01)" fill="none" stroke="#1791cc" stroke-linecap="round" stroke-linejoin="round" stroke-width="2"/>
    <path id="Shape_297" data-name="Shape 297" d="M728.5,492.055a14.073,14.073,0,0,1,13,.881,12.92,12.92,0,0,1,6.248,10.981v3.1" transform="translate(550.178 948.649)" fill="none" stroke="#1791cc" stroke-linecap="round" stroke-linejoin="round" stroke-width="2"/>
    <path id="Shape_298" data-name="Shape 298" d="M728.46,492.79a12.7,12.7,0,0,0-3.46,8.7v10.87a12.96,12.96,0,0,0,6.789,11.3,14.081,14.081,0,0,0,13.592,0" transform="translate(545.752 951.079)" fill="none" stroke="#1791cc" stroke-linecap="round" stroke-linejoin="round" stroke-width="2"/>
    <path id="Shape_299" data-name="Shape 299" d="M728,511.141a6.8,6.8,0,0,0,13.587,0v-10.87a6.8,6.8,0,0,0-13.587,0v6.522" transform="translate(549.545 952.293)" fill="none" stroke="#1791cc" stroke-linecap="round" stroke-linejoin="round" stroke-width="2"/>
    <path id="Shape_300" data-name="Shape 300" d="M731,496.63v6.522" transform="translate(553.339 955.935)" fill="none" stroke="#1791cc" stroke-linecap="round" stroke-linejoin="round" stroke-width="2"/>
    <path id="Shape_301" data-name="Shape 301" d="M731,501.43V503.6" transform="translate(553.339 962.005)" fill="none" stroke="#1791cc" stroke-linecap="round" stroke-linejoin="round" stroke-width="2"/>
    <path id="Shape_302" data-name="Shape 302" d="M731,510.5a21.245,21.245,0,0,0,5.714-.779" transform="translate(553.339 972.495)" fill="none" stroke="#1791cc" stroke-linecap="round" stroke-linejoin="round" stroke-width="2"/>
    <path id="Rectangle-path_21" data-name="Rectangle-path 21" d="M736,504.655a2.265,2.265,0,0,1,2.265-2.265h15.851a2.265,2.265,0,0,1,2.265,2.265v12.86a2.265,2.265,0,0,1-2.265,2.265H738.265A2.265,2.265,0,0,1,736,517.515Z" transform="translate(559.661 963.218)" fill="none" stroke="#1791cc" stroke-linecap="round" stroke-linejoin="round" stroke-width="2"/>
    <path id="Oval_50" data-name="Oval 50" d="M742.081,510.526a2.72,2.72,0,1,0-2.831-2.717A2.776,2.776,0,0,0,742.081,510.526Z" transform="translate(563.771 966.634)" fill="none" stroke="#1791cc" stroke-linecap="round" stroke-linejoin="round" stroke-width="2"/>
    <path id="Shape_303" data-name="Shape 303" d="M749.323,503.985a5.666,5.666,0,0,0-11.323,0v3.261h11.323Z" transform="translate(562.19 958.363)" fill="none" stroke="#1791cc" stroke-linecap="round" stroke-linejoin="round" stroke-width="2"/>
  </g>
</svg>
