<svg xmlns="http://www.w3.org/2000/svg" width="95" height="110" viewBox="0 0 95 110">
  <g id="InfrastructureService" transform="translate(-1572.967 -1403)">
    <path id="Path_3641" data-name="Path 3641" d="M418.521,477.873l-47.5-27.5V395.369l47.5-27.5,47.5,27.5v55.008Zm-42.107-30.62,42.107,24.377,42.113-24.377v-48.76l-42.113-24.382-42.107,24.382Z" transform="translate(1201.943 1035.127)" fill="#047ebb"/>
    <path id="Shape_443" data-name="Shape 443" d="M771.755,657.072h52.083" transform="translate(822.203 825.928)" fill="none" stroke="#1791cc" stroke-linecap="round" stroke-linejoin="round" stroke-width="2"/>
    <path id="Shape_444" data-name="Shape 444" d="M792.135,676.495h-20.38V642.8a1.111,1.111,0,0,1,1.132-1.087H791a1.111,1.111,0,0,1,1.132,1.087Z" transform="translate(822.203 806.505)" fill="none" stroke="#1791cc" stroke-linecap="round" stroke-linejoin="round" stroke-width="2"/>
    <path id="Shape_445" data-name="Shape 445" d="M797.813,648.559a1.111,1.111,0,0,0-1.132-1.087h-6.794a1.111,1.111,0,0,0-1.132,1.087v20.652h9.058Z" transform="translate(843.699 813.789)" fill="none" stroke="#1791cc" stroke-linecap="round" stroke-linejoin="round" stroke-width="2"/>
    <path id="Shape_446" data-name="Shape 446" d="M791.813,648.559a1.111,1.111,0,0,0-1.132-1.087h-6.794a1.111,1.111,0,0,0-1.132,1.087v20.652h9.058Z" transform="translate(836.112 813.789)" fill="none" stroke="#1791cc" stroke-linecap="round" stroke-linejoin="round" stroke-width="2"/>
    <path id="Shape_447" data-name="Shape 447" d="M781.548,640.879a1.111,1.111,0,0,0-1.132-1.087h-4.529a1.111,1.111,0,0,0-1.132,1.087v3.261h6.793Z" transform="translate(825.996 804.078)" fill="none" stroke="#1791cc" stroke-linecap="round" stroke-linejoin="round" stroke-width="2"/>
    <path id="Shape_448" data-name="Shape 448" d="M775.755,644.648v-8.7" transform="translate(827.261 799.222)" fill="none" stroke="#1791cc" stroke-linecap="round" stroke-linejoin="round" stroke-width="2"/>
    <path id="Shape_449" data-name="Shape 449" d="M773.755,644.592h11.323" transform="translate(824.732 810.147)" fill="none" stroke="#1791cc" stroke-linecap="round" stroke-linejoin="round" stroke-width="2"/>
    <path id="Shape_450" data-name="Shape 450" d="M773.755,647.472h11.323" transform="translate(824.732 813.789)" fill="none" stroke="#1791cc" stroke-linecap="round" stroke-linejoin="round" stroke-width="2"/>
    <path id="Shape_451" data-name="Shape 451" d="M773.755,650.352h11.323" transform="translate(824.732 817.431)" fill="none" stroke="#1791cc" stroke-linecap="round" stroke-linejoin="round" stroke-width="2"/>
    <path id="Shape_452" data-name="Shape 452" d="M773.755,653.232h11.323" transform="translate(824.732 821.072)" fill="none" stroke="#1791cc" stroke-linecap="round" stroke-linejoin="round" stroke-width="2"/>
    <path id="Shape_453" data-name="Shape 453" d="M786.916,644.267a5.552,5.552,0,0,0-5.661-5.435" transform="translate(834.216 802.864)" fill="none" stroke="#1791cc" stroke-linecap="round" stroke-linejoin="round" stroke-width="2"/>
    <path id="Shape_454" data-name="Shape 454" d="M791.445,646.695a9.993,9.993,0,0,0-10.19-9.783" transform="translate(834.216 800.436)" fill="none" stroke="#1791cc" stroke-linecap="round" stroke-linejoin="round" stroke-width="2"/>
    <path id="Shape_455" data-name="Shape 455" d="M795.974,649.122a13.847,13.847,0,0,0-4.312-9.991,15.039,15.039,0,0,0-10.408-4.14" transform="translate(834.216 798.008)" fill="none" stroke="#1791cc" stroke-linecap="round" stroke-linejoin="round" stroke-width="2"/>
  </g>
</svg>
