<svg xmlns="http://www.w3.org/2000/svg" width="95" height="110" viewBox="0 0 95 110">
  <g id="IT-SharedServices" transform="translate(-912.967 -1403)">
    <path id="Path_3641" data-name="Path 3641" d="M418.521,477.873l-47.5-27.5V395.369l47.5-27.5,47.5,27.5v55.008Zm-42.107-30.62,42.107,24.377,42.113-24.377v-48.76l-42.113-24.382-42.107,24.382Z" transform="translate(541.943 1035.127)" fill="#047ebb"/>
    <path id="Oval_80" data-name="Oval 80" d="M776.68,422.4c11.41,0,20.658-3.895,20.658-8.7s-9.248-8.7-20.658-8.7-20.659,3.895-20.659,8.7S765.27,422.4,776.68,422.4Z" transform="translate(178.977 1028)" fill="none" stroke="#1791cc" stroke-linecap="round" stroke-linejoin="round" stroke-width="2"/>
    <path id="Shape_950" data-name="Shape 950" d="M776.68,421.7c-11.408,0-20.659-3.892-20.659-8.7" transform="translate(178.977 1037.396)" fill="none" stroke="#1791cc" stroke-linecap="round" stroke-linejoin="round" stroke-width="2"/>
    <path id="Shape_951" data-name="Shape 951" d="M776.68,426.2c-11.408,0-20.659-3.893-20.659-8.7" transform="translate(178.977 1042.682)" fill="none" stroke="#1791cc" stroke-linecap="round" stroke-linejoin="round" stroke-width="2"/>
    <path id="Shape_952" data-name="Shape 952" d="M776.68,445.968c-11.408,0-20.659-3.893-20.659-8.7V409" transform="translate(178.977 1032.698)" fill="none" stroke="#1791cc" stroke-linecap="round" stroke-linejoin="round" stroke-width="2"/>
    <path id="Shape_953" data-name="Shape 953" d="M775.022,409l0,9.786" transform="translate(201.292 1032.698)" fill="none" stroke="#1791cc" stroke-linecap="round" stroke-linejoin="round" stroke-width="2"/>
    <path id="Oval_81" data-name="Oval 81" d="M774.959,426.344a3.127,3.127,0,1,0-3.127-3.127A3.126,3.126,0,0,0,774.959,426.344Z" transform="translate(197.548 1045.724)" fill="none" stroke="#1791cc" stroke-linecap="round" stroke-linejoin="round" stroke-width="2"/>
    <path id="Shape_954" data-name="Shape 954" d="M782.674,417.037l.922,3.027a2.069,2.069,0,0,0,2.446,1.42l3.068-.711a2.789,2.789,0,0,1,2.655,4.623l-2.148,2.314a2.088,2.088,0,0,0,0,2.827l2.146,2.314a2.79,2.79,0,0,1-2.655,4.623l-3.068-.711a2.066,2.066,0,0,0-2.444,1.42l-.922,3.027a2.772,2.772,0,0,1-5.31,0l-.922-3.016a2.067,2.067,0,0,0-2.446-1.42l-3.068.711a2.79,2.79,0,0,1-2.655-4.623l2.146-2.314a2.088,2.088,0,0,0,0-2.827l-2.146-2.316a2.789,2.789,0,0,1,2.655-4.623l3.068.7a2.072,2.072,0,0,0,2.446-1.42l.922-3.027a2.772,2.772,0,0,1,5.31,0Z" transform="translate(192.487 1039.816)" fill="none" stroke="#1791cc" stroke-linecap="round" stroke-linejoin="round" stroke-width="2"/>
  </g>
</svg>
