<svg xmlns="http://www.w3.org/2000/svg" width="95" height="110" viewBox="0 0 95 110">
  <g id="Network" transform="translate(-252.967 -1713)">
    <path id="Path_3641" data-name="Path 3641" d="M418.521,477.873l-47.5-27.5V395.369l47.5-27.5,47.5,27.5v55.008Zm-42.107-30.62,42.107,24.377,42.113-24.377v-48.76l-42.113-24.382-42.107,24.382Z" transform="translate(-118.057 1345.127)" fill="#047ebb"/>
    <path id="Shape_151" data-name="Shape 151" d="M849.392,335.139l16.528,0" transform="translate(-571.354 1444.99)" fill="none" stroke="#1791cc" stroke-linecap="round" stroke-linejoin="round" stroke-width="2"/>
    <path id="Shape_152" data-name="Shape 152" d="M850.007,323.139h41.266" transform="translate(-570.632 1430.904)" fill="none" stroke="#1791cc" stroke-linecap="round" stroke-linejoin="round" stroke-width="2"/>
    <path id="Shape_153" data-name="Shape 153" d="M872.981,329.141l-24.975,0" transform="translate(-572.98 1437.947)" fill="none" stroke="#1791cc" stroke-linecap="round" stroke-linejoin="round" stroke-width="2"/>
    <path id="Shape_154" data-name="Shape 154" d="M871.626,368.1a25,25,0,1,1,25.512-31.486" transform="translate(-572.979 1425.035)" fill="none" stroke="#1791cc" stroke-linecap="round" stroke-linejoin="round" stroke-width="2"/>
    <path id="Shape_155" data-name="Shape 155" d="M863.982,318.165c-13.043,14.13-12.806,32.516.237,49.907" transform="translate(-565.572 1425.065)" fill="none" stroke="#1791cc" stroke-linecap="round" stroke-linejoin="round" stroke-width="2"/>
    <path id="Shape_156" data-name="Shape 156" d="M860.224,318.165a35.073,35.073,0,0,1,9.285,18.421" transform="translate(-558.639 1425.065)" fill="none" stroke="#1791cc" stroke-linecap="round" stroke-linejoin="round" stroke-width="2"/>
    <path id="Oval_14" data-name="Oval 14" d="M863.886,343.422a4.891,4.891,0,1,0-4.891-4.891A4.891,4.891,0,0,0,863.886,343.422Z" transform="translate(-560.081 1443.23)" fill="none" stroke="#1791cc" stroke-linecap="round" stroke-linejoin="round" stroke-width="2"/>
    <path id="Oval_15" data-name="Oval 15" d="M871.386,346.422a4.891,4.891,0,1,0-4.891-4.891A4.891,4.891,0,0,0,871.386,346.422Z" transform="translate(-551.277 1446.751)" fill="none" stroke="#1791cc" stroke-linecap="round" stroke-linejoin="round" stroke-width="2"/>
    <path id="Oval_16" data-name="Oval 16" d="M871.386,338.922a4.891,4.891,0,1,0-4.891-4.891A4.891,4.891,0,0,0,871.386,338.922Z" transform="translate(-551.277 1437.948)" fill="none" stroke="#1791cc" stroke-linecap="round" stroke-linejoin="round" stroke-width="2"/>
    <path id="Shape_157" data-name="Shape 157" d="M863.169,337.306l7.937-4.761" transform="translate(-555.182 1441.945)" fill="none" stroke="#1791cc" stroke-linecap="round" stroke-linejoin="round" stroke-width="2"/>
    <path id="Shape_158" data-name="Shape 158" d="M863.332,336.725l7.228,2.891" transform="translate(-554.99 1446.851)" fill="none" stroke="#1791cc" stroke-linecap="round" stroke-linejoin="round" stroke-width="2"/>
  </g>
</svg>
