<svg xmlns="http://www.w3.org/2000/svg" width="95" height="110" viewBox="0 0 95 110">
  <g id="Product" transform="translate(-582.967 -1713)">
    <path id="Path_3641" data-name="Path 3641" d="M418.521,477.873l-47.5-27.5V395.369l47.5-27.5,47.5,27.5v55.008Zm-42.107-30.62,42.107,24.377,42.113-24.377v-48.76l-42.113-24.382-42.107,24.382Z" transform="translate(211.943 1345.127)" fill="#047ebb"/>
    <path id="Shape_1010" data-name="Shape 1010" d="M729.5,855.7v-7.609A1.087,1.087,0,0,1,730.583,847h32.609a1.087,1.087,0,0,1,1.087,1.087V855.7" transform="translate(-116.896 924.435)" fill="none" stroke="#1791cc" stroke-linecap="round" stroke-linejoin="round" stroke-width="2"/>
    <path id="Shape_1011" data-name="Shape 1011" d="M737.5,844v15.217" transform="translate(-107.5 920.913)" fill="none" stroke="#1791cc" stroke-linecap="round" stroke-linejoin="round" stroke-width="2"/>
    <path id="Oval_112" data-name="Oval 112" d="M743.37,855.739a10.87,10.87,0,1,0-10.87-10.87A10.871,10.871,0,0,0,743.37,855.739Z" transform="translate(-113.369 909.174)" fill="none" stroke="#1791cc" stroke-linecap="round" stroke-linejoin="round" stroke-width="2"/>
    <path id="Shape_1012" data-name="Shape 1012" d="M737.5,841v2.174" transform="translate(-107.5 917.391)" fill="none" stroke="#1791cc" stroke-linecap="round" stroke-linejoin="round" stroke-width="2"/>
    <path id="Shape_1013" data-name="Shape 1013" d="M737.5,836v2.174" transform="translate(-107.5 911.522)" fill="none" stroke="#1791cc" stroke-linecap="round" stroke-linejoin="round" stroke-width="2"/>
    <path id="Shape_1014" data-name="Shape 1014" d="M735.5,845.7h6.522a2.174,2.174,0,0,0,0-4.348H737.67a2.174,2.174,0,0,1,0-4.348h6.522" transform="translate(-109.853 912.696)" fill="none" stroke="#1791cc" stroke-linecap="round" stroke-linejoin="round" stroke-width="2"/>
    <path id="Oval_113" data-name="Oval 113" d="M733.022,864.043a6.522,6.522,0,1,0-6.522-6.522A6.522,6.522,0,0,0,733.022,864.043Z" transform="translate(-120.413 929.13)" fill="none" stroke="#1791cc" stroke-linecap="round" stroke-linejoin="round" stroke-width="2"/>
    <path id="Rectangle-path_24" data-name="Rectangle-path 24" d="M734.5,851h13.044v13.043H734.5Z" transform="translate(-111.021 929.13)" fill="none" stroke="#1791cc" stroke-linecap="round" stroke-linejoin="round" stroke-width="2"/>
    <path id="Shape_1015" data-name="Shape 1015" d="M749.022,851,742.5,864.043h13.044L749.022,851Z" transform="translate(-101.631 929.13)" fill="none" stroke="#1791cc" stroke-linecap="round" stroke-linejoin="round" stroke-width="2"/>
  </g>
</svg>
