<svg xmlns="http://www.w3.org/2000/svg" width="95" height="110" viewBox="0 0 95 110">
  <g id="Sales" transform="translate(-912.967 -1713)">
    <path id="Path_3641" data-name="Path 3641" d="M418.521,477.873l-47.5-27.5V395.369l47.5-27.5,47.5,27.5v55.008Zm-42.107-30.62,42.107,24.377,42.113-24.377v-48.76l-42.113-24.382-42.107,24.382Z" transform="translate(541.943 1345.127)" fill="#047ebb"/>
    <path id="Shape_1337" data-name="Shape 1337" d="M1101.656,726.752V704.53" transform="translate(-165.545 1066.422)" fill="none" stroke="#1791cc" stroke-linecap="round" stroke-linejoin="round" stroke-width="2"/>
    <path id="Shape_1338" data-name="Shape 1338" d="M1101.656,706.53h15.555a6.666,6.666,0,0,1,6.667,6.667h13.333a6.666,6.666,0,0,1,6.667,6.667h-42.222Z" transform="translate(-165.545 1068.866)" fill="none" stroke="#1791cc" stroke-linecap="round" stroke-linejoin="round" stroke-width="2"/>
    <path id="Shape_1339" data-name="Shape 1339" d="M1115.323,709.53h-6.667" transform="translate(-156.989 1072.533)" fill="none" stroke="#1791cc" stroke-linecap="round" stroke-linejoin="round" stroke-width="2"/>
    <path id="Shape_1340" data-name="Shape 1340" d="M1136.6,712.252a12.222,12.222,0,1,0-24.444,0Z" transform="translate(-152.712 1060.922)" fill="none" stroke="#1791cc" stroke-linecap="round" stroke-linejoin="round" stroke-width="2"/>
    <path id="Shape_1341" data-name="Shape 1341" d="M1114.81,693.64a12.025,12.025,0,0,0,13.327,2.687" transform="translate(-149.468 1053.112)" fill="none" stroke="#1791cc" stroke-linecap="round" stroke-linejoin="round" stroke-width="2"/>
    <path id="Oval_128" data-name="Oval 128" d="M1121.573,706.474a7.222,7.222,0,1,0-7.222-7.222A7.222,7.222,0,0,0,1121.573,706.474Z" transform="translate(-150.029 1051.144)" fill="none" stroke="#1791cc" stroke-linecap="round" stroke-linejoin="round" stroke-width="2"/>
    <path id="Shape_1342" data-name="Shape 1342" d="M1117.656,702.03v3.333" transform="translate(-145.989 1063.366)" fill="none" stroke="#1791cc" stroke-linecap="round" stroke-linejoin="round" stroke-width="2"/>
  </g>
</svg>
