<svg id="Search-icon" xmlns="http://www.w3.org/2000/svg" width="28.714" height="28.714" viewBox="0 0 28.714 28.714">
  <rect id="Rectangle_693" data-name="Rectangle 693" width="28.714" height="28.714" fill="none"/>
  <path id="Path_208" data-name="Path 208" d="M28.535,26.022,22.613,20.1a12.287,12.287,0,0,0,2.513-7.538A12.485,12.485,0,0,0,12.563,0,12.485,12.485,0,0,0,0,12.563,12.485,12.485,0,0,0,12.563,25.125,12.288,12.288,0,0,0,20.1,22.613l5.922,5.922ZM3.589,12.563a8.886,8.886,0,0,1,8.973-8.973,8.886,8.886,0,0,1,8.973,8.973,8.886,8.886,0,0,1-8.973,8.973A8.886,8.886,0,0,1,3.589,12.563Z" fill="#1791cc"/>
</svg>
