<svg xmlns="http://www.w3.org/2000/svg" width="95" height="110" viewBox="0 0 95 110">
  <g id="Web_Mobile" data-name="Web &amp; Mobile" transform="translate(-1242.967 -1713)">
    <path id="Path_3641" data-name="Path 3641" d="M418.521,477.873l-47.5-27.5V395.369l47.5-27.5,47.5,27.5v55.008Zm-42.107-30.62,42.107,24.377,42.113-24.377v-48.76l-42.113-24.382-42.107,24.382Z" transform="translate(871.943 1345.127)" fill="#047ebb"/>
    <path id="Shape_322" data-name="Shape 322" d="M683.079,1013.853a3.459,3.459,0,0,1,3.344-2.353h35.293a3.639,3.639,0,0,1,3.529,3.736v27.821a3.638,3.638,0,0,1-3.529,3.736H689.952" transform="translate(591.813 736.674)" fill="none" stroke="#1791cc" stroke-linecap="round" stroke-linejoin="round" stroke-width="2"/>
    <path id="Shape_323" data-name="Shape 323" d="M687.5,1028.5h21.176" transform="translate(597.794 759.674)" fill="none" stroke="#1791cc" stroke-linecap="round" stroke-linejoin="round" stroke-width="2"/>
    <path id="Shape_324" data-name="Shape 324" d="M692,1026.5v4.706" transform="translate(603.882 756.968)" fill="none" stroke="#1791cc" stroke-linecap="round" stroke-linejoin="round" stroke-width="2"/>
    <path id="Shape_325" data-name="Shape 325" d="M691,1022.5h23.529" transform="translate(602.529 751.556)" fill="none" stroke="#1791cc" stroke-linecap="round" stroke-linejoin="round" stroke-width="2"/>
    <path id="Shape_326" data-name="Shape 326" d="M681,1021.559v-4.706a2.354,2.354,0,0,1,2.353-2.353H697.47a2.354,2.354,0,0,1,2.353,2.353v18.823a2.354,2.354,0,0,1-2.353,2.353h-4.706" transform="translate(589 740.733)" fill="none" stroke="#1791cc" stroke-linecap="round" stroke-linejoin="round" stroke-width="2"/>
    <path id="Shape_327" data-name="Shape 327" d="M686,1022.5h7.059" transform="translate(595.765 751.556)" fill="none" stroke="#1791cc" stroke-linecap="round" stroke-linejoin="round" stroke-width="2"/>
    <path id="Rectangle-path_18" data-name="Rectangle-path 18" d="M678,1021.853a2.354,2.354,0,0,1,2.353-2.353h9.412a2.354,2.354,0,0,1,2.353,2.353v16.47a2.354,2.354,0,0,1-2.353,2.353h-9.412a2.354,2.354,0,0,1-2.353-2.353Z" transform="translate(584.941 747.498)" fill="none" stroke="#1791cc" stroke-linecap="round" stroke-linejoin="round" stroke-width="2"/>
    <path id="Shape_328" data-name="Shape 328" d="M678,1026.5h14.117" transform="translate(584.941 756.968)" fill="none" stroke="#1791cc" stroke-linecap="round" stroke-linejoin="round" stroke-width="2"/>
    <path id="Shape_329" data-name="Shape 329" d="M678,1021.5h14.117" transform="translate(584.941 750.203)" fill="none" stroke="#1791cc" stroke-linecap="round" stroke-linejoin="round" stroke-width="2"/>
    <path id="Shape_330" data-name="Shape 330" d="M681,1016.5h18.823" transform="translate(588.999 743.44)" fill="none" stroke="#1791cc" stroke-linecap="round" stroke-linejoin="round" stroke-width="2"/>
  </g>
</svg>
